<?xml version="1.0" encoding="UTF-8" standalone="no"?>
<!DOCTYPE svg PUBLIC "-//W3C//DTD SVG 1.1//EN"
 "http://www.w3.org/Graphics/SVG/1.1/DTD/svg11.dtd">
<!-- Generated by graphviz version 14.0.2 (20251019.1705)
 -->
<!-- Title: architect_nano_banana Pages: 1 -->
<svg width="2776pt" height="1070pt"
 viewBox="0.00 0.00 2776.00 1070.00" xmlns="http://www.w3.org/2000/svg" xmlns:xlink="http://www.w3.org/1999/xlink">
<g id="graph0" class="graph" transform="scale(1 1) rotate(0) translate(28.8 1040.8)">
<title>architect_nano_banana</title>
<polygon fill="white" stroke="none" points="-28.8,28.8 -28.8,-1040.8 2747.16,-1040.8 2747.16,28.8 -28.8,28.8"/>
<text xml:space="preserve" text-anchor="middle" x="1359.18" y="-989" font-family="Helvetica,sans-Serif" font-weight="bold" font-size="20.00">OT PdM Intelligence | Architect View (Nano Banana)</text>
<g id="clust1" class="cluster">
<title>cluster_sources</title>
<path fill="white" stroke="#fdba74" stroke-dasharray="5,2" d="M20,-285C20,-285 408.95,-285 408.95,-285 414.95,-285 420.95,-291 420.95,-297 420.95,-297 420.95,-461 420.95,-461 420.95,-467 414.95,-473 408.95,-473 408.95,-473 20,-473 20,-473 14,-473 8,-467 8,-461 8,-461 8,-297 8,-297 8,-291 14,-285 20,-285"/>
<text xml:space="preserve" text-anchor="middle" x="214.48" y="-450" font-family="Helvetica,sans-Serif" font-weight="bold" font-size="20.00">First&#45;Mile OT Ingestion</text>
</g>
<g id="clust2" class="cluster">
<title>cluster_lakehouse</title>
<path fill="white" stroke="#a78bfa" stroke-dasharray="5,2" d="M250.04,-481C250.04,-481 1642.24,-481 1642.24,-481 1648.24,-481 1654.24,-487 1654.24,-493 1654.24,-493 1654.24,-746 1654.24,-746 1654.24,-752 1648.24,-758 1642.24,-758 1642.24,-758 250.04,-758 250.04,-758 244.04,-758 238.04,-752 238.04,-746 238.04,-746 238.04,-493 238.04,-493 238.04,-487 244.04,-481 250.04,-481"/>
<text xml:space="preserve" text-anchor="middle" x="946.14" y="-735" font-family="Helvetica,sans-Serif" font-weight="bold" font-size="20.00">Databricks Lakehouse</text>
</g>
<g id="clust3" class="cluster">
<title>cluster_ml</title>
<path fill="white" stroke="#c4b5fd" stroke-dasharray="5,2" d="M687.33,-26C687.33,-26 1320.95,-26 1320.95,-26 1326.95,-26 1332.95,-32 1332.95,-38 1332.95,-38 1332.95,-127 1332.95,-127 1332.95,-133 1326.95,-139 1320.95,-139 1320.95,-139 687.33,-139 687.33,-139 681.33,-139 675.33,-133 675.33,-127 675.33,-127 675.33,-38 675.33,-38 675.33,-32 681.33,-26 687.33,-26"/>
<text xml:space="preserve" text-anchor="middle" x="1004.14" y="-116" font-family="Helvetica,sans-Serif" font-weight="bold" font-size="20.00">ML + MLOps</text>
</g>
<g id="clust4" class="cluster">
<title>cluster_apps</title>
<path fill="white" stroke="#86efac" stroke-dasharray="5,2" d="M1791.74,-528C1791.74,-528 2698.36,-528 2698.36,-528 2704.36,-528 2710.36,-534 2710.36,-540 2710.36,-540 2710.36,-963 2710.36,-963 2710.36,-969 2704.36,-975 2698.36,-975 2698.36,-975 1791.74,-975 1791.74,-975 1785.74,-975 1779.74,-969 1779.74,-963 1779.74,-963 1779.74,-540 1779.74,-540 1779.74,-534 1785.74,-528 1791.74,-528"/>
<text xml:space="preserve" text-anchor="middle" x="2245.05" y="-952" font-family="Helvetica,sans-Serif" font-weight="bold" font-size="20.00">Serving + Experiences</text>
</g>
<g id="clust5" class="cluster">
<title>cluster_orch</title>
<path fill="white" stroke="#fcd34d" stroke-dasharray="5,2" d="M30.5,-8C30.5,-8 439.33,-8 439.33,-8 445.33,-8 451.33,-14 451.33,-20 451.33,-20 451.33,-265 451.33,-265 451.33,-271 445.33,-277 439.33,-277 439.33,-277 30.5,-277 30.5,-277 24.5,-277 18.5,-271 18.5,-265 18.5,-265 18.5,-20 18.5,-20 18.5,-14 24.5,-8 30.5,-8"/>
<text xml:space="preserve" text-anchor="middle" x="234.91" y="-254" font-family="Helvetica,sans-Serif" font-weight="bold" font-size="20.00">Bundle Orchestration</text>
</g>
<!-- ot_proto -->
<g id="node1" class="node">
<title>ot_proto</title>
<path fill="#fffbeb" stroke="#fcd34d" d="M153.04,-341.07C153.04,-341.07 28,-341.07 28,-341.07 22,-341.07 16,-335.07 16,-329.07 16,-329.07 16,-304.93 16,-304.93 16,-298.93 22,-292.93 28,-292.93 28,-292.93 153.04,-292.93 153.04,-292.93 159.04,-292.93 165.04,-298.93 165.04,-304.93 165.04,-304.93 165.04,-329.07 165.04,-329.07 165.04,-335.07 159.04,-341.07 153.04,-341.07"/>
<text xml:space="preserve" text-anchor="middle" x="90.52" y="-324.38" font-family="Helvetica,sans-Serif" font-size="10.00">Protocols</text>
<text xml:space="preserve" text-anchor="middle" x="90.52" y="-313.12" font-family="Helvetica,sans-Serif" font-size="10.00">OPC&#45;UA | MQTT JSON</text>
<text xml:space="preserve" text-anchor="middle" x="90.52" y="-301.88" font-family="Helvetica,sans-Serif" font-size="10.00">Sparkplug B | Modbus | CAN</text>
</g>
<!-- connector -->
<g id="node3" class="node">
<title>connector</title>
<path fill="#fffbeb" stroke="#fcd34d" d="M400.95,-431.45C400.95,-431.45 314.16,-431.45 314.16,-431.45 308.16,-431.45 302.16,-425.45 302.16,-419.45 302.16,-419.45 302.16,-406.55 302.16,-406.55 302.16,-400.55 308.16,-394.55 314.16,-394.55 314.16,-394.55 400.95,-394.55 400.95,-394.55 406.95,-394.55 412.95,-400.55 412.95,-406.55 412.95,-406.55 412.95,-419.45 412.95,-419.45 412.95,-425.45 406.95,-431.45 400.95,-431.45"/>
<text xml:space="preserve" text-anchor="middle" x="357.56" y="-414.75" font-family="Helvetica,sans-Serif" font-size="10.00">core/zerobus_ingest</text>
<text xml:space="preserve" text-anchor="middle" x="357.56" y="-403.5" font-family="Helvetica,sans-Serif" font-size="10.00">run_connector.py</text>
</g>
<!-- ot_proto&#45;&gt;connector -->
<g id="edge1" class="edge">
<title>ot_proto&#45;&gt;connector</title>
<path fill="none" stroke="#6d28d9" stroke-width="1.4" d="M159.36,-341.48C159.36,-369.09 159.36,-410.18 159.36,-410.18 159.36,-410.18 292.2,-410.18 292.2,-410.18"/>
<polygon fill="#6d28d9" stroke="#6d28d9" stroke-width="1.4" points="292.2,-412.81 299.7,-410.18 292.2,-407.56 292.2,-412.81"/>
</g>
<!-- ot_sim -->
<g id="node2" class="node">
<title>ot_sim</title>
<path fill="#fffbeb" stroke="#fcd34d" d="M141.04,-436.45C141.04,-436.45 40,-436.45 40,-436.45 34,-436.45 28,-430.45 28,-424.45 28,-424.45 28,-411.55 28,-411.55 28,-405.55 34,-399.55 40,-399.55 40,-399.55 141.04,-399.55 141.04,-399.55 147.04,-399.55 153.04,-405.55 153.04,-411.55 153.04,-411.55 153.04,-424.45 153.04,-424.45 153.04,-430.45 147.04,-436.45 141.04,-436.45"/>
<text xml:space="preserve" text-anchor="middle" x="90.52" y="-419.75" font-family="Helvetica,sans-Serif" font-size="10.00">Simulator Engine</text>
<text xml:space="preserve" text-anchor="middle" x="90.52" y="-408.5" font-family="Helvetica,sans-Serif" font-size="10.00">physics + faults + SDT</text>
</g>
<!-- ot_sim&#45;&gt;connector -->
<g id="edge2" class="edge">
<title>ot_sim&#45;&gt;connector</title>
<path fill="none" stroke="#6d28d9" stroke-width="1.4" d="M153.47,-420.82C153.47,-420.82 292.22,-420.82 292.22,-420.82"/>
<polygon fill="#6d28d9" stroke="#6d28d9" stroke-width="1.4" points="292.22,-423.44 299.72,-420.82 292.22,-418.19 292.22,-423.44"/>
</g>
<!-- bronze -->
<g id="node5" class="node">
<title>bronze</title>
<path fill="#fef2f2" stroke="#fca5a5" d="M773.49,-537.08C773.49,-537.08 703.2,-537.08 703.2,-537.08 697.2,-537.08 691.2,-531.08 691.2,-525.08 691.2,-525.08 691.2,-500.93 691.2,-500.93 691.2,-494.93 697.2,-488.93 703.2,-488.93 703.2,-488.93 773.49,-488.93 773.49,-488.93 779.49,-488.93 785.49,-494.93 785.49,-500.93 785.49,-500.93 785.49,-525.08 785.49,-525.08 785.49,-531.08 779.49,-537.08 773.49,-537.08"/>
<text xml:space="preserve" text-anchor="middle" x="738.35" y="-520.38" font-family="Helvetica,sans-Serif" font-size="10.00">DLT Bronze</text>
<text xml:space="preserve" text-anchor="middle" x="738.35" y="-509.12" font-family="Helvetica,sans-Serif" font-size="10.00">sensor_readings</text>
<text xml:space="preserve" text-anchor="middle" x="738.35" y="-497.88" font-family="Helvetica,sans-Serif" font-size="10.00">pi_tag_readings</text>
</g>
<!-- connector&#45;&gt;bronze -->
<g id="edge22" class="edge">
<title>connector&#45;&gt;bronze</title>
<path fill="none" stroke="#6d28d9" stroke-width="1.4" d="M413.34,-413C519.11,-413 738.36,-413 738.36,-413 738.36,-413 738.36,-478.92 738.36,-478.92"/>
<polygon fill="#6d28d9" stroke="#6d28d9" stroke-width="1.4" points="735.74,-478.92 738.36,-486.42 740.99,-478.92 735.74,-478.92"/>
<text xml:space="preserve" text-anchor="middle" x="576.2" y="-464.2" font-family="Helvetica,sans-Serif" font-size="9.00">writes pravin_zerobus</text>
</g>
<!-- uc -->
<g id="node4" class="node">
<title>uc</title>
<path fill="#fffbeb" stroke="none" d="M457.08,-720.83C457.08,-720.83 258.04,-720.83 258.04,-720.83 252.04,-720.83 246.04,-714.83 246.04,-708.83 246.04,-708.83 246.04,-501.18 246.04,-501.18 246.04,-495.18 252.04,-489.18 258.04,-489.18 258.04,-489.18 457.08,-489.18 457.08,-489.18 463.08,-489.18 469.08,-495.18 469.08,-501.18 469.08,-501.18 469.08,-708.83 469.08,-708.83 469.08,-714.83 463.08,-720.83 457.08,-720.83"/>
<image xlink:href="icons/databricks/unity_catalog.png" width="192px" height="192px" preserveAspectRatio="xMinYMin meet" x="261.56" y="-709.625"/>
<text xml:space="preserve" text-anchor="start" x="327.56" y="-502.12" font-family="Helvetica,sans-Serif" font-size="10.00">Unity Catalog</text>
</g>
<!-- uc&#45;&gt;bronze -->
<g id="edge6" class="edge">
<title>uc&#45;&gt;bronze</title>
<path fill="none" stroke="#a78bfa" stroke-width="1.4" stroke-dasharray="5,2" d="M468.98,-521.11C542.73,-521.11 635.69,-521.11 690.89,-521.11"/>
</g>
<!-- silver -->
<g id="node6" class="node">
<title>silver</title>
<path fill="#eff6ff" stroke="#93c5fd" d="M1025.41,-596.7C1025.41,-596.7 936.37,-596.7 936.37,-596.7 930.37,-596.7 924.37,-590.7 924.37,-584.7 924.37,-584.7 924.37,-549.3 924.37,-549.3 924.37,-543.3 930.37,-537.3 936.37,-537.3 936.37,-537.3 1025.41,-537.3 1025.41,-537.3 1031.41,-537.3 1037.41,-543.3 1037.41,-549.3 1037.41,-549.3 1037.41,-584.7 1037.41,-584.7 1037.41,-590.7 1031.41,-596.7 1025.41,-596.7"/>
<text xml:space="preserve" text-anchor="middle" x="980.89" y="-580" font-family="Helvetica,sans-Serif" font-size="10.00">DLT Silver</text>
<text xml:space="preserve" text-anchor="middle" x="980.89" y="-568.75" font-family="Helvetica,sans-Serif" font-size="10.00">sensor_features</text>
<text xml:space="preserve" text-anchor="middle" x="980.89" y="-557.5" font-family="Helvetica,sans-Serif" font-size="10.00">asset_health_scores</text>
<text xml:space="preserve" text-anchor="middle" x="980.89" y="-546.25" font-family="Helvetica,sans-Serif" font-size="10.00">ot_pi_aligned</text>
</g>
<!-- uc&#45;&gt;silver -->
<g id="edge7" class="edge">
<title>uc&#45;&gt;silver</title>
<path fill="none" stroke="#a78bfa" stroke-width="1.4" stroke-dasharray="5,2" d="M469,-576.9C602.59,-576.9 821.3,-576.9 924.11,-576.9"/>
</g>
<!-- gold -->
<g id="node7" class="node">
<title>gold</title>
<path fill="#ecfdf5" stroke="#86efac" d="M1314.45,-647.7C1314.45,-647.7 1210.41,-647.7 1210.41,-647.7 1204.41,-647.7 1198.41,-641.7 1198.41,-635.7 1198.41,-635.7 1198.41,-600.3 1198.41,-600.3 1198.41,-594.3 1204.41,-588.3 1210.41,-588.3 1210.41,-588.3 1314.45,-588.3 1314.45,-588.3 1320.45,-588.3 1326.45,-594.3 1326.45,-600.3 1326.45,-600.3 1326.45,-635.7 1326.45,-635.7 1326.45,-641.7 1320.45,-647.7 1314.45,-647.7"/>
<text xml:space="preserve" text-anchor="middle" x="1262.43" y="-631" font-family="Helvetica,sans-Serif" font-size="10.00">DLT Gold logical</text>
<text xml:space="preserve" text-anchor="middle" x="1262.43" y="-619.75" font-family="Helvetica,sans-Serif" font-size="10.00">feature_vectors</text>
<text xml:space="preserve" text-anchor="middle" x="1262.43" y="-608.5" font-family="Helvetica,sans-Serif" font-size="10.00">maintenance_alerts</text>
<text xml:space="preserve" text-anchor="middle" x="1262.43" y="-597.25" font-family="Helvetica,sans-Serif" font-size="10.00">financial_impact_events</text>
</g>
<!-- uc&#45;&gt;gold -->
<g id="edge8" class="edge">
<title>uc&#45;&gt;gold</title>
<path fill="none" stroke="#a78bfa" stroke-width="1.4" stroke-dasharray="5,2" d="M468.97,-630.7C660.29,-630.7 1045.41,-630.7 1198.02,-630.7"/>
</g>
<!-- pred -->
<g id="node8" class="node">
<title>pred</title>
<path fill="#f3e8ff" stroke="#c4b5fd" d="M1634.24,-636.45C1634.24,-636.45 1502.45,-636.45 1502.45,-636.45 1496.45,-636.45 1490.45,-630.45 1490.45,-624.45 1490.45,-624.45 1490.45,-611.55 1490.45,-611.55 1490.45,-605.55 1496.45,-599.55 1502.45,-599.55 1502.45,-599.55 1634.24,-599.55 1634.24,-599.55 1640.24,-599.55 1646.24,-605.55 1646.24,-611.55 1646.24,-611.55 1646.24,-624.45 1646.24,-624.45 1646.24,-630.45 1640.24,-636.45 1634.24,-636.45"/>
<text xml:space="preserve" text-anchor="middle" x="1568.34" y="-619.75" font-family="Helvetica,sans-Serif" font-size="10.00">Scored predictions</text>
<text xml:space="preserve" text-anchor="middle" x="1568.34" y="-608.5" font-family="Helvetica,sans-Serif" font-size="10.00">{catalog}.gold.pdm_predictions</text>
</g>
<!-- uc&#45;&gt;pred -->
<g id="edge9" class="edge">
<title>uc&#45;&gt;pred</title>
<path fill="none" stroke="#a78bfa" stroke-width="1.4" stroke-dasharray="5,2" d="M469.03,-684.26C768.56,-684.26 1568.36,-684.26 1568.36,-684.26 1568.36,-684.26 1568.36,-656.4 1568.36,-636.81"/>
</g>
<!-- bronze&#45;&gt;silver -->
<g id="edge3" class="edge">
<title>bronze&#45;&gt;silver</title>
<path fill="none" stroke="#6d28d9" stroke-width="1.4" d="M738.36,-537.37C738.36,-547.57 738.36,-557.1 738.36,-557.1 738.36,-557.1 914.41,-557.1 914.41,-557.1"/>
<polygon fill="#6d28d9" stroke="#6d28d9" stroke-width="1.4" points="914.41,-559.73 921.91,-557.1 914.41,-554.48 914.41,-559.73"/>
</g>
<!-- silver&#45;&gt;gold -->
<g id="edge4" class="edge">
<title>silver&#45;&gt;gold</title>
<path fill="none" stroke="#6d28d9" stroke-width="1.4" d="M1037.86,-592.5C1037.86,-592.5 1188.29,-592.5 1188.29,-592.5"/>
<polygon fill="#6d28d9" stroke="#6d28d9" stroke-width="1.4" points="1188.29,-595.13 1195.79,-592.5 1188.29,-589.88 1188.29,-595.13"/>
</g>
<!-- gold&#45;&gt;pred -->
<g id="edge5" class="edge">
<title>gold&#45;&gt;pred</title>
<path fill="none" stroke="#6d28d9" stroke-width="1.4" d="M1326.93,-618C1326.93,-618 1480.47,-618 1480.47,-618"/>
<polygon fill="#6d28d9" stroke="#6d28d9" stroke-width="1.4" points="1480.47,-620.63 1487.97,-618 1480.47,-615.38 1480.47,-620.63"/>
<text xml:space="preserve" text-anchor="middle" x="1408.45" y="-619.2" font-family="Helvetica,sans-Serif" font-size="9.00">batch_score append</text>
</g>
<!-- train -->
<g id="node9" class="node">
<title>train</title>
<path fill="#fffbeb" stroke="#fcd34d" d="M781.37,-102.08C781.37,-102.08 695.33,-102.08 695.33,-102.08 689.33,-102.08 683.33,-96.08 683.33,-90.08 683.33,-90.08 683.33,-65.92 683.33,-65.92 683.33,-59.92 689.33,-53.92 695.33,-53.92 695.33,-53.92 781.37,-53.92 781.37,-53.92 787.37,-53.92 793.37,-59.92 793.37,-65.92 793.37,-65.92 793.37,-90.08 793.37,-90.08 793.37,-96.08 787.37,-102.08 781.37,-102.08"/>
<text xml:space="preserve" text-anchor="middle" x="738.35" y="-85.38" font-family="Helvetica,sans-Serif" font-size="10.00">Training Job</text>
<text xml:space="preserve" text-anchor="middle" x="738.35" y="-74.12" font-family="Helvetica,sans-Serif" font-size="10.00">ot_pdm_training_job</text>
<text xml:space="preserve" text-anchor="middle" x="738.35" y="-62.88" font-family="Helvetica,sans-Serif" font-size="10.00">core/ml/train.py</text>
</g>
<!-- gold&#45;&gt;train -->
<g id="edge24" class="edge">
<title>gold&#45;&gt;train</title>
<path fill="none" stroke="#6d28d9" stroke-width="1.4" d="M1198.14,-613.7C1068.79,-613.7 789.36,-613.7 789.36,-613.7 789.36,-613.7 789.36,-112.03 789.36,-112.03"/>
<polygon fill="#6d28d9" stroke="#6d28d9" stroke-width="1.4" points="791.99,-112.03 789.36,-104.53 786.74,-112.03 791.99,-112.03"/>
<text xml:space="preserve" text-anchor="middle" x="980.89" y="-387.2" font-family="Helvetica,sans-Serif" font-size="9.00">feature_vectors</text>
</g>
<!-- api -->
<g id="node12" class="node">
<title>api</title>
<path fill="#fffbeb" stroke="none" d="M1998.78,-823.83C1998.78,-823.83 1799.74,-823.83 1799.74,-823.83 1793.74,-823.83 1787.74,-817.83 1787.74,-811.83 1787.74,-811.83 1787.74,-604.17 1787.74,-604.17 1787.74,-598.17 1793.74,-592.17 1799.74,-592.17 1799.74,-592.17 1998.78,-592.17 1998.78,-592.17 2004.78,-592.17 2010.78,-598.17 2010.78,-604.17 2010.78,-604.17 2010.78,-811.83 2010.78,-811.83 2010.78,-817.83 2004.78,-823.83 1998.78,-823.83"/>
<image xlink:href="icons/databricks/workspace.png" width="192px" height="192px" preserveAspectRatio="xMinYMin meet" x="1803.26" y="-812.625"/>
<text xml:space="preserve" text-anchor="start" x="1843.38" y="-605.12" font-family="Helvetica,sans-Serif" font-size="10.00">Databricks App / FastAPI</text>
</g>
<!-- gold&#45;&gt;api -->
<g id="edge27" class="edge">
<title>gold&#45;&gt;api</title>
<path fill="none" stroke="#6d28d9" stroke-width="1.4" d="M1326.7,-642.08C1326.7,-642.08 1778.21,-642.08 1778.21,-642.08"/>
<polygon fill="#6d28d9" stroke="#6d28d9" stroke-width="1.4" points="1778.21,-644.7 1785.71,-642.08 1778.21,-639.45 1778.21,-644.7"/>
<text xml:space="preserve" text-anchor="middle" x="1568.34" y="-753.2" font-family="Helvetica,sans-Serif" font-size="9.00">financial impact + alerts</text>
</g>
<!-- pred&#45;&gt;api -->
<g id="edge26" class="edge">
<title>pred&#45;&gt;api</title>
<path fill="none" stroke="#6d28d9" stroke-width="1.4" d="M1646.35,-618C1646.35,-618 1778.34,-618 1778.34,-618"/>
<polygon fill="#6d28d9" stroke="#6d28d9" stroke-width="1.4" points="1778.34,-620.63 1785.84,-618 1778.34,-615.38 1778.34,-620.63"/>
<text xml:space="preserve" text-anchor="middle" x="1716.99" y="-664.2" font-family="Helvetica,sans-Serif" font-size="9.00">predictions API</text>
</g>
<!-- registry -->
<g id="node11" class="node">
<title>registry</title>
<path fill="#f5f3ff" stroke="#c4b5fd" d="M1045.66,-102.08C1045.66,-102.08 916.12,-102.08 916.12,-102.08 910.12,-102.08 904.12,-96.08 904.12,-90.08 904.12,-90.08 904.12,-65.92 904.12,-65.92 904.12,-59.92 910.12,-53.92 916.12,-53.92 916.12,-53.92 1045.66,-53.92 1045.66,-53.92 1051.66,-53.92 1057.66,-59.92 1057.66,-65.92 1057.66,-65.92 1057.66,-90.08 1057.66,-90.08 1057.66,-96.08 1051.66,-102.08 1045.66,-102.08"/>
<text xml:space="preserve" text-anchor="middle" x="980.89" y="-85.38" font-family="Helvetica,sans-Serif" font-size="10.00">MLflow (databricks&#45;uc)</text>
<text xml:space="preserve" text-anchor="middle" x="980.89" y="-74.12" font-family="Helvetica,sans-Serif" font-size="10.00">models.{anomaly,rul}_&lt;asset&gt;</text>
<text xml:space="preserve" text-anchor="middle" x="980.89" y="-62.88" font-family="Helvetica,sans-Serif" font-size="10.00">alias: champion</text>
</g>
<!-- train&#45;&gt;registry -->
<g id="edge10" class="edge">
<title>train&#45;&gt;registry</title>
<path fill="none" stroke="#6d28d9" stroke-width="1.4" d="M793.69,-78C793.69,-78 894.11,-78 894.11,-78"/>
<polygon fill="#6d28d9" stroke="#6d28d9" stroke-width="1.4" points="894.11,-80.63 901.61,-78 894.11,-75.38 894.11,-80.63"/>
<text xml:space="preserve" text-anchor="middle" x="848.74" y="-93.2" font-family="Helvetica,sans-Serif" font-size="9.00">register</text>
</g>
<!-- score -->
<g id="node10" class="node">
<title>score</title>
<path fill="#fffbeb" stroke="#fcd34d" d="M1312.95,-102.08C1312.95,-102.08 1211.91,-102.08 1211.91,-102.08 1205.91,-102.08 1199.91,-96.08 1199.91,-90.08 1199.91,-90.08 1199.91,-65.92 1199.91,-65.92 1199.91,-59.92 1205.91,-53.92 1211.91,-53.92 1211.91,-53.92 1312.95,-53.92 1312.95,-53.92 1318.95,-53.92 1324.95,-59.92 1324.95,-65.92 1324.95,-65.92 1324.95,-90.08 1324.95,-90.08 1324.95,-96.08 1318.95,-102.08 1312.95,-102.08"/>
<text xml:space="preserve" text-anchor="middle" x="1262.43" y="-85.38" font-family="Helvetica,sans-Serif" font-size="10.00">Scoring Job</text>
<text xml:space="preserve" text-anchor="middle" x="1262.43" y="-74.12" font-family="Helvetica,sans-Serif" font-size="10.00">ot_pdm_scoring_job</text>
<text xml:space="preserve" text-anchor="middle" x="1262.43" y="-62.88" font-family="Helvetica,sans-Serif" font-size="10.00">core/ml/batch_score.py</text>
</g>
<!-- score&#45;&gt;pred -->
<g id="edge25" class="edge">
<title>score&#45;&gt;pred</title>
<path fill="none" stroke="#6d28d9" stroke-width="1.4" d="M1325.45,-78C1415,-78 1568.36,-78 1568.36,-78 1568.36,-78 1568.36,-589.48 1568.36,-589.48"/>
<polygon fill="#6d28d9" stroke="#6d28d9" stroke-width="1.4" points="1565.74,-589.48 1568.36,-596.98 1570.99,-589.48 1565.74,-589.48"/>
<text xml:space="preserve" text-anchor="middle" x="1408.45" y="-312.2" font-family="Helvetica,sans-Serif" font-size="9.00">writes scored rows</text>
</g>
<!-- registry&#45;&gt;score -->
<g id="edge11" class="edge">
<title>registry&#45;&gt;score</title>
<path fill="none" stroke="#6d28d9" stroke-width="1.4" d="M1057.82,-78C1057.82,-78 1190.2,-78 1190.2,-78"/>
<polygon fill="#6d28d9" stroke="#6d28d9" stroke-width="1.4" points="1190.2,-80.63 1197.7,-78 1190.2,-75.38 1190.2,-80.63"/>
<text xml:space="preserve" text-anchor="middle" x="1128.03" y="-93.2" font-family="Helvetica,sans-Serif" font-size="9.00">load champion</text>
</g>
<!-- ui -->
<g id="node13" class="node">
<title>ui</title>
<path fill="#fffbeb" stroke="#fcd34d" d="M2335.32,-572.45C2335.32,-572.45 2103.78,-572.45 2103.78,-572.45 2097.78,-572.45 2091.78,-566.45 2091.78,-560.45 2091.78,-560.45 2091.78,-547.55 2091.78,-547.55 2091.78,-541.55 2097.78,-535.55 2103.78,-535.55 2103.78,-535.55 2335.32,-535.55 2335.32,-535.55 2341.32,-535.55 2347.32,-541.55 2347.32,-547.55 2347.32,-547.55 2347.32,-560.45 2347.32,-560.45 2347.32,-566.45 2341.32,-572.45 2335.32,-572.45"/>
<text xml:space="preserve" text-anchor="middle" x="2219.55" y="-555.75" font-family="Helvetica,sans-Serif" font-size="10.00">React UI pages</text>
<text xml:space="preserve" text-anchor="middle" x="2219.55" y="-544.5" font-family="Helvetica,sans-Serif" font-size="10.00">Fleet | Drilldown | ISA&#45;95 | Stream | Model | Simulator</text>
</g>
<!-- api&#45;&gt;ui -->
<g id="edge12" class="edge">
<title>api&#45;&gt;ui</title>
<path fill="none" stroke="#6d28d9" stroke-width="1.4" d="M2010.57,-640.86C2058.33,-640.86 2103.36,-640.86 2103.36,-640.86 2103.36,-640.86 2103.36,-582.47 2103.36,-582.47"/>
<polygon fill="#6d28d9" stroke="#6d28d9" stroke-width="1.4" points="2105.99,-582.47 2103.36,-574.97 2100.74,-582.47 2105.99,-582.47"/>
</g>
<!-- agent -->
<g id="node14" class="node">
<title>agent</title>
<path fill="#fffbeb" stroke="#fcd34d" d="M2690.36,-726.45C2690.36,-726.45 2518.07,-726.45 2518.07,-726.45 2512.07,-726.45 2506.07,-720.45 2506.07,-714.45 2506.07,-714.45 2506.07,-701.55 2506.07,-701.55 2506.07,-695.55 2512.07,-689.55 2518.07,-689.55 2518.07,-689.55 2690.36,-689.55 2690.36,-689.55 2696.36,-689.55 2702.36,-695.55 2702.36,-701.55 2702.36,-701.55 2702.36,-714.45 2702.36,-714.45 2702.36,-720.45 2696.36,-726.45 2690.36,-726.45"/>
<text xml:space="preserve" text-anchor="middle" x="2604.21" y="-709.75" font-family="Helvetica,sans-Serif" font-size="10.00">GenAI Agent Layer</text>
<text xml:space="preserve" text-anchor="middle" x="2604.21" y="-698.5" font-family="Helvetica,sans-Serif" font-size="10.00">UCFunctionToolkit + Databricks Agents</text>
</g>
<!-- api&#45;&gt;agent -->
<g id="edge13" class="edge">
<title>api&#45;&gt;agent</title>
<path fill="none" stroke="#6d28d9" stroke-width="1.4" d="M2010.62,-755.38C2201.63,-755.38 2571.36,-755.38 2571.36,-755.38 2571.36,-755.38 2571.36,-736.34 2571.36,-736.34"/>
<polygon fill="#6d28d9" stroke="#6d28d9" stroke-width="1.4" points="2573.99,-736.34 2571.36,-728.84 2568.74,-736.34 2573.99,-736.34"/>
</g>
<!-- rag -->
<g id="node15" class="node">
<title>rag</title>
<path fill="#fffbeb" stroke="#fcd34d" d="M2312.44,-726.45C2312.44,-726.45 2126.65,-726.45 2126.65,-726.45 2120.65,-726.45 2114.65,-720.45 2114.65,-714.45 2114.65,-714.45 2114.65,-701.55 2114.65,-701.55 2114.65,-695.55 2120.65,-689.55 2126.65,-689.55 2126.65,-689.55 2312.44,-689.55 2312.44,-689.55 2318.44,-689.55 2324.44,-695.55 2324.44,-701.55 2324.44,-701.55 2324.44,-714.45 2324.44,-714.45 2324.44,-720.45 2318.44,-726.45 2312.44,-726.45"/>
<text xml:space="preserve" text-anchor="middle" x="2219.55" y="-709.75" font-family="Helvetica,sans-Serif" font-size="10.00">Manual reference chunks</text>
<text xml:space="preserve" text-anchor="middle" x="2219.55" y="-698.5" font-family="Helvetica,sans-Serif" font-size="10.00">{catalog}.bronze.manual_reference_chunks</text>
</g>
<!-- api&#45;&gt;rag -->
<g id="edge14" class="edge">
<title>api&#45;&gt;rag</title>
<path fill="none" stroke="#6d28d9" stroke-width="1.4" d="M2010.38,-708C2010.38,-708 2104.66,-708 2104.66,-708"/>
<polygon fill="#6d28d9" stroke="#6d28d9" stroke-width="1.4" points="2104.66,-710.63 2112.16,-708 2104.66,-705.38 2104.66,-710.63"/>
</g>
<!-- lakebase -->
<g id="node16" class="node">
<title>lakebase</title>
<path fill="#fffbeb" stroke="#fcd34d" d="M2268.94,-843.7C2268.94,-843.7 2170.15,-843.7 2170.15,-843.7 2164.15,-843.7 2158.15,-837.7 2158.15,-831.7 2158.15,-831.7 2158.15,-796.3 2158.15,-796.3 2158.15,-790.3 2164.15,-784.3 2170.15,-784.3 2170.15,-784.3 2268.94,-784.3 2268.94,-784.3 2274.94,-784.3 2280.94,-790.3 2280.94,-796.3 2280.94,-796.3 2280.94,-831.7 2280.94,-831.7 2280.94,-837.7 2274.94,-843.7 2268.94,-843.7"/>
<text xml:space="preserve" text-anchor="middle" x="2219.55" y="-827" font-family="Helvetica,sans-Serif" font-size="10.00">Lakebase ops tables</text>
<text xml:space="preserve" text-anchor="middle" x="2219.55" y="-815.75" font-family="Helvetica,sans-Serif" font-size="10.00">parts_inventory</text>
<text xml:space="preserve" text-anchor="middle" x="2219.55" y="-804.5" font-family="Helvetica,sans-Serif" font-size="10.00">maintenance_schedule</text>
<text xml:space="preserve" text-anchor="middle" x="2219.55" y="-793.25" font-family="Helvetica,sans-Serif" font-size="10.00">work_orders</text>
</g>
<!-- api&#45;&gt;lakebase -->
<g id="edge15" class="edge">
<title>api&#45;&gt;lakebase</title>
<path fill="none" stroke="#6d28d9" stroke-width="1.4" d="M2010.38,-804.06C2010.38,-804.06 2148.45,-804.06 2148.45,-804.06"/>
<polygon fill="#6d28d9" stroke="#6d28d9" stroke-width="1.4" points="2148.45,-806.69 2155.95,-804.06 2148.45,-801.44 2148.45,-806.69"/>
</g>
<!-- genie -->
<g id="node17" class="node">
<title>genie</title>
<path fill="#fffbeb" stroke="#fcd34d" d="M2268.19,-938.45C2268.19,-938.45 2170.9,-938.45 2170.9,-938.45 2164.9,-938.45 2158.9,-932.45 2158.9,-926.45 2158.9,-926.45 2158.9,-913.55 2158.9,-913.55 2158.9,-907.55 2164.9,-901.55 2170.9,-901.55 2170.9,-901.55 2268.19,-901.55 2268.19,-901.55 2274.19,-901.55 2280.19,-907.55 2280.19,-913.55 2280.19,-913.55 2280.19,-926.45 2280.19,-926.45 2280.19,-932.45 2274.19,-938.45 2268.19,-938.45"/>
<text xml:space="preserve" text-anchor="middle" x="2219.55" y="-921.75" font-family="Helvetica,sans-Serif" font-size="10.00">Genie rooms</text>
<text xml:space="preserve" text-anchor="middle" x="2219.55" y="-910.5" font-family="Helvetica,sans-Serif" font-size="10.00">setup_genie_rooms.py</text>
</g>
<!-- api&#45;&gt;genie -->
<g id="edge16" class="edge">
<title>api&#45;&gt;genie</title>
<path fill="none" stroke="#6d28d9" stroke-width="1.4" d="M1899.36,-823.62C1899.36,-873.22 1899.36,-920 1899.36,-920 1899.36,-920 2148.95,-920 2148.95,-920"/>
<polygon fill="#6d28d9" stroke="#6d28d9" stroke-width="1.4" points="2148.95,-922.63 2156.45,-920 2148.95,-917.38 2148.95,-922.63"/>
</g>
<!-- rag&#45;&gt;agent -->
<g id="edge29" class="edge">
<title>rag&#45;&gt;agent</title>
<path fill="none" stroke="#6d28d9" stroke-width="1.4" d="M2324.92,-708C2324.92,-708 2496.02,-708 2496.02,-708"/>
<polygon fill="#6d28d9" stroke="#6d28d9" stroke-width="1.4" points="2496.02,-710.63 2503.52,-708 2496.02,-705.38 2496.02,-710.63"/>
<text xml:space="preserve" text-anchor="middle" x="2426.69" y="-709.2" font-family="Helvetica,sans-Serif" font-size="9.00">grounding snippets</text>
</g>
<!-- lakebase&#45;&gt;agent -->
<g id="edge28" class="edge">
<title>lakebase&#45;&gt;agent</title>
<path fill="none" stroke="#6d28d9" stroke-width="1.4" d="M2281.2,-814C2397.42,-814 2637.36,-814 2637.36,-814 2637.36,-814 2637.36,-736.08 2637.36,-736.08"/>
<polygon fill="#6d28d9" stroke="#6d28d9" stroke-width="1.4" points="2639.99,-736.08 2637.36,-728.58 2634.74,-736.08 2639.99,-736.08"/>
<text xml:space="preserve" text-anchor="middle" x="2426.69" y="-798.2" font-family="Helvetica,sans-Serif" font-size="9.00">prescriptive context</text>
</g>
<!-- bundle -->
<g id="node18" class="node">
<title>bundle</title>
<path fill="#fffbeb" stroke="#fcd34d" d="M142.54,-52.45C142.54,-52.45 38.5,-52.45 38.5,-52.45 32.5,-52.45 26.5,-46.45 26.5,-40.45 26.5,-40.45 26.5,-27.55 26.5,-27.55 26.5,-21.55 32.5,-15.55 38.5,-15.55 38.5,-15.55 142.54,-15.55 142.54,-15.55 148.54,-15.55 154.54,-21.55 154.54,-27.55 154.54,-27.55 154.54,-40.45 154.54,-40.45 154.54,-46.45 148.54,-52.45 142.54,-52.45"/>
<text xml:space="preserve" text-anchor="middle" x="90.52" y="-35.75" font-family="Helvetica,sans-Serif" font-size="10.00">databricks.yml</text>
<text xml:space="preserve" text-anchor="middle" x="90.52" y="-24.5" font-family="Helvetica,sans-Serif" font-size="10.00">DAB targets + variables</text>
</g>
<!-- bundle&#45;&gt;train -->
<g id="edge19" class="edge">
<title>bundle&#45;&gt;train</title>
<path fill="none" stroke="#6d28d9" stroke-width="1.4" d="M122.36,-52.92C122.36,-64.84 122.36,-78 122.36,-78 122.36,-78 673.25,-78 673.25,-78"/>
<polygon fill="#6d28d9" stroke="#6d28d9" stroke-width="1.4" points="673.25,-80.63 680.75,-78 673.25,-75.38 673.25,-80.63"/>
</g>
<!-- bundle&#45;&gt;score -->
<g id="edge20" class="edge">
<title>bundle&#45;&gt;score</title>
<path fill="none" stroke="#6d28d9" stroke-width="1.4" d="M90.36,-52.93C90.36,-74.27 90.36,-106.04 90.36,-106.04 90.36,-106.04 1262.36,-106.04 1262.36,-106.04 1262.36,-106.04 1262.36,-105.65 1262.36,-105.65"/>
<polygon fill="#6d28d9" stroke="#6d28d9" stroke-width="1.4" points="1264.99,-111.76 1262.36,-104.26 1259.74,-111.76 1264.99,-111.76"/>
</g>
<!-- dlt_job -->
<g id="node19" class="node">
<title>dlt_job</title>
<path fill="#fffbeb" stroke="#fcd34d" d="M400.2,-52.45C400.2,-52.45 314.91,-52.45 314.91,-52.45 308.91,-52.45 302.91,-46.45 302.91,-40.45 302.91,-40.45 302.91,-27.55 302.91,-27.55 302.91,-21.55 308.91,-15.55 314.91,-15.55 314.91,-15.55 400.2,-15.55 400.2,-15.55 406.2,-15.55 412.2,-21.55 412.2,-27.55 412.2,-27.55 412.2,-40.45 412.2,-40.45 412.2,-46.45 406.2,-52.45 400.2,-52.45"/>
<text xml:space="preserve" text-anchor="middle" x="357.56" y="-35.75" font-family="Helvetica,sans-Serif" font-size="10.00">ot_pdm_dlt_pipeline</text>
<text xml:space="preserve" text-anchor="middle" x="357.56" y="-24.5" font-family="Helvetica,sans-Serif" font-size="10.00">continuous</text>
</g>
<!-- bundle&#45;&gt;dlt_job -->
<g id="edge17" class="edge">
<title>bundle&#45;&gt;dlt_job</title>
<path fill="none" stroke="#6d28d9" stroke-width="1.4" d="M154.82,-27.85C154.82,-27.85 293.21,-27.85 293.21,-27.85"/>
<polygon fill="#6d28d9" stroke="#6d28d9" stroke-width="1.4" points="293.21,-30.48 300.71,-27.85 293.21,-25.23 293.21,-30.48"/>
</g>
<!-- connector_job -->
<g id="node20" class="node">
<title>connector_job</title>
<path fill="#fffbeb" stroke="#fcd34d" d="M426.08,-146C426.08,-146 289.04,-146 289.04,-146 283.04,-146 277.04,-140 277.04,-134 277.04,-134 277.04,-122 277.04,-122 277.04,-116 283.04,-110 289.04,-110 289.04,-110 426.08,-110 426.08,-110 432.08,-110 438.08,-116 438.08,-122 438.08,-122 438.08,-134 438.08,-134 438.08,-140 432.08,-146 426.08,-146"/>
<text xml:space="preserve" text-anchor="middle" x="357.56" y="-124.12" font-family="Helvetica,sans-Serif" font-size="10.00">ot_pdm_zerobus_connector_job</text>
</g>
<!-- bundle&#45;&gt;connector_job -->
<g id="edge18" class="edge">
<title>bundle&#45;&gt;connector_job</title>
<path fill="none" stroke="#6d28d9" stroke-width="1.4" d="M154.85,-40.15C213.27,-40.15 290.36,-40.15 290.36,-40.15 290.36,-40.15 290.36,-100.18 290.36,-100.18"/>
<polygon fill="#6d28d9" stroke="#6d28d9" stroke-width="1.4" points="287.74,-100.18 290.36,-107.68 292.99,-100.18 287.74,-100.18"/>
</g>
<!-- bootstrap -->
<g id="node21" class="node">
<title>bootstrap</title>
<path fill="#fffbeb" stroke="#fcd34d" d="M431.33,-240.45C431.33,-240.45 283.79,-240.45 283.79,-240.45 277.79,-240.45 271.79,-234.45 271.79,-228.45 271.79,-228.45 271.79,-215.55 271.79,-215.55 271.79,-209.55 277.79,-203.55 283.79,-203.55 283.79,-203.55 431.33,-203.55 431.33,-203.55 437.33,-203.55 443.33,-209.55 443.33,-215.55 443.33,-215.55 443.33,-228.45 443.33,-228.45 443.33,-234.45 437.33,-240.45 431.33,-240.45"/>
<text xml:space="preserve" text-anchor="middle" x="357.56" y="-223.75" font-family="Helvetica,sans-Serif" font-size="10.00">ot_pdm_workspace_bootstrap_job</text>
<text xml:space="preserve" text-anchor="middle" x="357.56" y="-212.5" font-family="Helvetica,sans-Serif" font-size="10.00">RUNME_BOOTSTRAP_ALL.py</text>
</g>
<!-- bundle&#45;&gt;bootstrap -->
<g id="edge21" class="edge">
<title>bundle&#45;&gt;bootstrap</title>
<path fill="none" stroke="#6d28d9" stroke-width="1.4" d="M58.36,-52.71C58.36,-100.27 58.36,-222 58.36,-222 58.36,-222 261.8,-222 261.8,-222"/>
<polygon fill="#6d28d9" stroke="#6d28d9" stroke-width="1.4" points="261.8,-224.63 269.3,-222 261.8,-219.38 261.8,-224.63"/>
</g>
<!-- dlt_job&#45;&gt;bronze -->
<g id="edge23" class="edge">
<title>dlt_job&#45;&gt;bronze</title>
<path fill="none" stroke="#6d28d9" stroke-width="1.4" d="M412.49,-34C477.3,-34 576.36,-34 576.36,-34 576.36,-34 576.36,-505.14 576.36,-505.14 576.36,-505.14 681.44,-505.14 681.44,-505.14"/>
<polygon fill="#6d28d9" stroke="#6d28d9" stroke-width="1.4" points="681.44,-507.77 688.94,-505.14 681.44,-502.52 681.44,-507.77"/>
<text xml:space="preserve" text-anchor="middle" x="576.2" y="-188.2" font-family="Helvetica,sans-Serif" font-size="9.00">executes bronze/silver/gold code</text>
</g>
</g>
</svg>
