<?xml version="1.0" encoding="UTF-8" standalone="no"?>
<!DOCTYPE svg PUBLIC "-//W3C//DTD SVG 1.1//EN"
 "http://www.w3.org/Graphics/SVG/1.1/DTD/svg11.dtd">
<!-- Generated by graphviz version 14.0.2 (20251019.1705)
 -->
<!-- Title: architect_nano_banana_gemini Pages: 1 -->
<svg width="1633pt" height="698pt"
 viewBox="0.00 0.00 1633.00 698.00" xmlns="http://www.w3.org/2000/svg" xmlns:xlink="http://www.w3.org/1999/xlink">
<g id="graph0" class="graph" transform="scale(1 1) rotate(0) translate(4 694)">
<title>architect_nano_banana_gemini</title>
<polygon fill="white" stroke="none" points="-4,4 -4,-694 1629.42,-694 1629.42,4 -4,4"/>
<!-- protocols -->
<g id="node1" class="node">
<title>protocols</title>
<ellipse fill="#f0f8ff" stroke="black" cx="80.01" cy="-672" rx="45.72" ry="18"/>
<text xml:space="preserve" text-anchor="middle" x="80.01" y="-666.95" font-family="Times,serif" font-size="14.00">Protocols</text>
</g>
<!-- run_connector -->
<g id="node3" class="node">
<title>run_connector</title>
<ellipse fill="#f0f8ff" stroke="black" cx="271.43" cy="-645" rx="75.41" ry="18"/>
<text xml:space="preserve" text-anchor="middle" x="271.43" y="-639.95" font-family="Times,serif" font-size="14.00">run_connector.py</text>
</g>
<!-- protocols&#45;&gt;run_connector -->
<g id="edge1" class="edge">
<title>protocols&#45;&gt;run_connector</title>
<path fill="none" stroke="black" d="M111.19,-658.5C111.19,-658.5 208.18,-658.5 208.18,-658.5"/>
<polygon fill="black" stroke="black" points="208.18,-662 218.18,-658.5 208.18,-655 208.18,-662"/>
</g>
<!-- simulator -->
<g id="node2" class="node">
<title>simulator</title>
<ellipse fill="#f0f8ff" stroke="black" cx="80.01" cy="-618" rx="47.77" ry="18"/>
<text xml:space="preserve" text-anchor="middle" x="80.01" y="-612.95" font-family="Times,serif" font-size="14.00">Simulator</text>
</g>
<!-- simulator&#45;&gt;run_connector -->
<g id="edge2" class="edge">
<title>simulator&#45;&gt;run_connector</title>
<path fill="none" stroke="black" d="M108.26,-633C108.26,-633 202.27,-633 202.27,-633"/>
<polygon fill="black" stroke="black" points="202.27,-636.5 212.27,-633 202.27,-629.5 202.27,-636.5"/>
</g>
<!-- bronze -->
<g id="node4" class="node">
<title>bronze</title>
<ellipse fill="#f0f8ff" stroke="black" cx="420.37" cy="-564" rx="37.53" ry="18"/>
<text xml:space="preserve" text-anchor="middle" x="420.37" y="-558.95" font-family="Times,serif" font-size="14.00">Bronze</text>
</g>
<!-- run_connector&#45;&gt;bronze -->
<g id="edge3" class="edge">
<title>run_connector&#45;&gt;bronze</title>
<path fill="none" stroke="black" d="M339.42,-636.94C339.42,-616.45 339.42,-564 339.42,-564 339.42,-564 371.23,-564 371.23,-564"/>
<polygon fill="black" stroke="black" points="371.23,-567.5 381.23,-564 371.23,-560.5 371.23,-567.5"/>
</g>
<!-- silver -->
<g id="node5" class="node">
<title>silver</title>
<ellipse fill="#f0f8ff" stroke="black" cx="566.75" cy="-516" rx="32.93" ry="18"/>
<text xml:space="preserve" text-anchor="middle" x="566.75" y="-510.95" font-family="Times,serif" font-size="14.00">Silver</text>
</g>
<!-- bronze&#45;&gt;silver -->
<g id="edge4" class="edge">
<title>bronze&#45;&gt;silver</title>
<path fill="none" stroke="black" d="M458.36,-564C501.64,-564 566.42,-564 566.42,-564 566.42,-564 566.42,-545.93 566.42,-545.93"/>
<polygon fill="black" stroke="black" points="569.92,-545.93 566.42,-535.93 562.92,-545.93 569.92,-545.93"/>
</g>
<!-- gold -->
<g id="node6" class="node">
<title>gold</title>
<ellipse fill="#f0f8ff" stroke="black" cx="847.42" cy="-511" rx="171.83" ry="144.25"/>
<image xlink:href="icons/databricks/lakehouse.png" width="192px" height="192px" preserveAspectRatio="xMinYMin meet" x="735.925" y="-607"/>
<text xml:space="preserve" text-anchor="start" x="931.92" y="-505.95" font-family="Times,serif" font-size="14.00">Gold</text>
</g>
<!-- silver&#45;&gt;gold -->
<g id="edge5" class="edge">
<title>silver&#45;&gt;gold</title>
<path fill="none" stroke="black" d="M600.05,-516C600.05,-516 663.89,-516 663.89,-516"/>
<polygon fill="black" stroke="black" points="663.89,-519.5 673.89,-516 663.89,-512.5 663.89,-519.5"/>
</g>
<!-- training -->
<g id="node8" class="node">
<title>training</title>
<ellipse fill="#f0f8ff" stroke="black" cx="1267.91" cy="-494" rx="56.98" ry="18"/>
<text xml:space="preserve" text-anchor="middle" x="1267.91" y="-488.95" font-family="Times,serif" font-size="14.00">Training job</text>
</g>
<!-- gold&#45;&gt;training -->
<g id="edge7" class="edge">
<title>gold&#45;&gt;training</title>
<path fill="none" stroke="black" d="M1018.45,-494C1018.45,-494 1199.09,-494 1199.09,-494"/>
<polygon fill="black" stroke="black" points="1199.09,-497.5 1209.09,-494 1199.09,-490.5 1199.09,-497.5"/>
</g>
<!-- databricks_app -->
<g id="node11" class="node">
<title>databricks_app</title>
<ellipse fill="#f0f8ff" stroke="black" cx="1267.91" cy="-306" rx="212.66" ry="144.25"/>
<image xlink:href="icons/databricks/workspace.png" width="192px" height="192px" preserveAspectRatio="xMinYMin meet" x="1127.54" y="-402"/>
<text xml:space="preserve" text-anchor="start" x="1323.54" y="-300.95" font-family="Times,serif" font-size="14.00">Databricks App</text>
</g>
<!-- gold&#45;&gt;databricks_app -->
<g id="edge6" class="edge">
<title>gold&#45;&gt;databricks_app</title>
<path fill="none" stroke="black" d="M969.05,-408.5C969.05,-408.5 1105.91,-408.5 1105.91,-408.5"/>
<polygon fill="black" stroke="black" points="1105.91,-412 1115.91,-408.5 1105.91,-405 1105.91,-412"/>
</g>
<!-- predictions -->
<g id="node7" class="node">
<title>predictions</title>
<ellipse fill="#f0f8ff" stroke="black" cx="566.75" cy="-293" rx="72.85" ry="18"/>
<text xml:space="preserve" text-anchor="middle" x="566.75" y="-287.95" font-family="Times,serif" font-size="14.00">Predictions table</text>
</g>
<!-- predictions&#45;&gt;databricks_app -->
<g id="edge10" class="edge">
<title>predictions&#45;&gt;databricks_app</title>
<path fill="none" stroke="black" d="M639.8,-293C639.8,-293 1044.21,-293 1044.21,-293"/>
<polygon fill="black" stroke="black" points="1044.21,-296.5 1054.21,-293 1044.21,-289.5 1044.21,-296.5"/>
</g>
<!-- scoring -->
<g id="node9" class="node">
<title>scoring</title>
<ellipse fill="#f0f8ff" stroke="black" cx="271.43" cy="-293" rx="53.91" ry="18"/>
<text xml:space="preserve" text-anchor="middle" x="271.43" y="-287.95" font-family="Times,serif" font-size="14.00">Scoring job</text>
</g>
<!-- scoring&#45;&gt;predictions -->
<g id="edge9" class="edge">
<title>scoring&#45;&gt;predictions</title>
<path fill="none" stroke="black" d="M325.6,-293C325.6,-293 481.95,-293 481.95,-293"/>
<polygon fill="black" stroke="black" points="481.95,-296.5 491.95,-293 481.95,-289.5 481.95,-296.5"/>
</g>
<!-- mlflow -->
<g id="node10" class="node">
<title>mlflow</title>
<ellipse fill="#f0f8ff" stroke="black" cx="80.01" cy="-293" rx="72.85" ry="18"/>
<text xml:space="preserve" text-anchor="middle" x="80.01" y="-287.95" font-family="Times,serif" font-size="14.00">MLflow registry</text>
</g>
<!-- mlflow&#45;&gt;scoring -->
<g id="edge8" class="edge">
<title>mlflow&#45;&gt;scoring</title>
<path fill="none" stroke="black" d="M149.39,-287C149.39,-287 208.48,-287 208.48,-287"/>
<polygon fill="black" stroke="black" points="208.48,-290.5 218.48,-287 208.48,-283.5 208.48,-290.5"/>
</g>
<!-- react_ui -->
<g id="node12" class="node">
<title>react_ui</title>
<ellipse fill="#f0f8ff" stroke="black" cx="1571" cy="-306" rx="44.19" ry="18"/>
<text xml:space="preserve" text-anchor="middle" x="1571" y="-300.95" font-family="Times,serif" font-size="14.00">React UI</text>
</g>
<!-- databricks_app&#45;&gt;react_ui -->
<g id="edge11" class="edge">
<title>databricks_app&#45;&gt;react_ui</title>
<path fill="none" stroke="black" d="M1480.88,-306C1480.88,-306 1515.04,-306 1515.04,-306"/>
<polygon fill="black" stroke="black" points="1515.04,-309.5 1525.04,-306 1515.04,-302.5 1515.04,-309.5"/>
</g>
<!-- agent -->
<g id="node13" class="node">
<title>agent</title>
<ellipse fill="#f0f8ff" stroke="black" cx="1571" cy="-99" rx="54.42" ry="18"/>
<text xml:space="preserve" text-anchor="middle" x="1571" y="-93.95" font-family="Times,serif" font-size="14.00">Agent layer</text>
</g>
<!-- databricks_app&#45;&gt;agent -->
<g id="edge12" class="edge">
<title>databricks_app&#45;&gt;agent</title>
<path fill="none" stroke="black" d="M1444.33,-224.88C1487.42,-224.88 1521.42,-224.88 1521.42,-224.88 1521.42,-224.88 1521.42,-118.39 1521.42,-118.39"/>
<polygon fill="black" stroke="black" points="1524.92,-118.39 1521.42,-108.39 1517.92,-118.39 1524.92,-118.39"/>
</g>
<!-- lakebase -->
<g id="node14" class="node">
<title>lakebase</title>
<ellipse fill="#f0f8ff" stroke="black" cx="1267.91" cy="-72" rx="45.72" ry="18"/>
<text xml:space="preserve" text-anchor="middle" x="1267.91" y="-66.95" font-family="Times,serif" font-size="14.00">Lakebase</text>
</g>
<!-- lakebase&#45;&gt;agent -->
<g id="edge13" class="edge">
<title>lakebase&#45;&gt;agent</title>
<path fill="none" stroke="black" d="M1294.81,-87C1294.81,-87 1517.85,-87 1517.85,-87"/>
<polygon fill="black" stroke="black" points="1517.85,-90.5 1527.85,-87 1517.85,-83.5 1517.85,-90.5"/>
</g>
<!-- manuals -->
<g id="node15" class="node">
<title>manuals</title>
<ellipse fill="#f0f8ff" stroke="black" cx="1267.91" cy="-18" rx="63.63" ry="18"/>
<text xml:space="preserve" text-anchor="middle" x="1267.91" y="-12.95" font-family="Times,serif" font-size="14.00">Manuals table</text>
</g>
<!-- manuals&#45;&gt;agent -->
<g id="edge14" class="edge">
<title>manuals&#45;&gt;agent</title>
<path fill="none" stroke="black" d="M1320.42,-28.6C1320.42,-47.26 1320.42,-84 1320.42,-84 1320.42,-84 1527.5,-84 1527.5,-84"/>
<polygon fill="black" stroke="black" points="1527.5,-87.5 1537.5,-84 1527.49,-80.5 1527.5,-87.5"/>
</g>
<!-- genie -->
<g id="node16" class="node">
<title>genie</title>
<ellipse fill="#f0f8ff" stroke="black" cx="1267.91" cy="-126" rx="59.03" ry="18"/>
<text xml:space="preserve" text-anchor="middle" x="1267.91" y="-120.95" font-family="Times,serif" font-size="14.00">Genie rooms</text>
</g>
<!-- genie&#45;&gt;agent -->
<g id="edge15" class="edge">
<title>genie&#45;&gt;agent</title>
<path fill="none" stroke="black" d="M1308.48,-112.5C1308.48,-112.5 1522.02,-112.5 1522.02,-112.5"/>
<polygon fill="black" stroke="black" points="1522.02,-116 1532.02,-112.5 1522.02,-109 1522.02,-116"/>
</g>
<!-- databricks_bundle -->
<g id="node17" class="node">
<title>databricks_bundle</title>
<ellipse fill="#f0f8ff" stroke="black" cx="80.01" cy="-423" rx="80.01" ry="18"/>
<text xml:space="preserve" text-anchor="middle" x="80.01" y="-417.95" font-family="Times,serif" font-size="14.00">Databricks Bundle</text>
</g>
<!-- databricks_bundle&#45;&gt;run_connector -->
<g id="edge20" class="edge">
<title>databricks_bundle&#45;&gt;run_connector</title>
<path fill="none" stroke="black" d="M143.42,-434.13C143.42,-477.13 143.42,-630 143.42,-630 143.42,-630 215.51,-630 215.51,-630"/>
<polygon fill="black" stroke="black" points="215.51,-633.5 225.51,-630 215.51,-626.5 215.51,-633.5"/>
</g>
<!-- databricks_bundle&#45;&gt;training -->
<g id="edge17" class="edge">
<title>databricks_bundle&#45;&gt;training</title>
<path fill="none" stroke="black" d="M135.42,-436.27C135.42,-488.43 135.42,-676.5 135.42,-676.5 135.42,-676.5 1267.42,-676.5 1267.42,-676.5 1267.42,-676.5 1267.42,-523.68 1267.42,-523.68"/>
<polygon fill="black" stroke="black" points="1270.92,-523.68 1267.42,-513.68 1263.92,-523.68 1270.92,-523.68"/>
</g>
<!-- databricks_bundle&#45;&gt;scoring -->
<g id="edge18" class="edge">
<title>databricks_bundle&#45;&gt;scoring</title>
<path fill="none" stroke="black" d="M156.42,-417.35C156.42,-393.09 156.42,-299 156.42,-299 156.42,-299 208.47,-299 208.47,-299"/>
<polygon fill="black" stroke="black" points="208.47,-302.5 218.47,-299 208.47,-295.5 208.47,-302.5"/>
</g>
<!-- dlt_pipeline -->
<g id="node18" class="node">
<title>dlt_pipeline</title>
<ellipse fill="#f0f8ff" stroke="black" cx="271.43" cy="-423" rx="60.05" ry="18"/>
<text xml:space="preserve" text-anchor="middle" x="271.43" y="-417.95" font-family="Times,serif" font-size="14.00">DLT pipeline</text>
</g>
<!-- databricks_bundle&#45;&gt;dlt_pipeline -->
<g id="edge16" class="edge">
<title>databricks_bundle&#45;&gt;dlt_pipeline</title>
<path fill="none" stroke="black" d="M160.36,-423C160.36,-423 199.57,-423 199.57,-423"/>
<polygon fill="black" stroke="black" points="199.57,-426.5 209.57,-423 199.57,-419.5 199.57,-426.5"/>
</g>
<!-- bootstrap -->
<g id="node19" class="node">
<title>bootstrap</title>
<ellipse fill="#f0f8ff" stroke="black" cx="271.43" cy="-477" rx="61.08" ry="18"/>
<text xml:space="preserve" text-anchor="middle" x="271.43" y="-471.95" font-family="Times,serif" font-size="14.00">Bootstrap job</text>
</g>
<!-- databricks_bundle&#45;&gt;bootstrap -->
<g id="edge19" class="edge">
<title>databricks_bundle&#45;&gt;bootstrap</title>
<path fill="none" stroke="black" d="M152.42,-430.97C152.42,-445.99 152.42,-477 152.42,-477 152.42,-477 198.67,-477 198.67,-477"/>
<polygon fill="black" stroke="black" points="198.67,-480.5 208.67,-477 198.67,-473.5 198.67,-480.5"/>
</g>
<!-- cluster_unity -->
<g id="node20" class="node">
<title>cluster_unity</title>
<ellipse fill="#f0f8ff" stroke="black" cx="80.01" cy="-358" rx="59.03" ry="18"/>
<text xml:space="preserve" text-anchor="middle" x="80.01" y="-352.95" font-family="Times,serif" font-size="14.00">cluster_unity</text>
</g>
<!-- cluster_unity&#45;&gt;bronze -->
<g id="edge21" class="edge">
<title>cluster_unity&#45;&gt;bronze</title>
<path fill="none" stroke="black" stroke-dasharray="5,2" d="M111.43,-373.69C195.7,-373.69 420.42,-373.69 420.42,-373.69 420.42,-373.69 420.42,-534.24 420.42,-534.24"/>
<polygon fill="black" stroke="black" points="416.92,-534.24 420.42,-544.24 423.92,-534.24 416.92,-534.24"/>
</g>
<!-- cluster_unity&#45;&gt;silver -->
<g id="edge22" class="edge">
<title>cluster_unity&#45;&gt;silver</title>
<path fill="none" stroke="black" stroke-dasharray="5,2" d="M121.06,-371.38C238.33,-371.38 566.42,-371.38 566.42,-371.38 566.42,-371.38 566.42,-486.17 566.42,-486.17"/>
<polygon fill="black" stroke="black" points="562.92,-486.17 566.42,-496.17 569.92,-486.17 562.92,-486.17"/>
</g>
<!-- cluster_unity&#45;&gt;gold -->
<g id="edge23" class="edge">
<title>cluster_unity&#45;&gt;gold</title>
<path fill="none" stroke="black" stroke-dasharray="5,2" d="M127.44,-369.06C127.44,-369.06 802.45,-369.06 802.45,-369.06"/>
<polygon fill="black" stroke="black" points="802.45,-372.56 812.45,-369.06 802.45,-365.56 802.45,-372.56"/>
</g>
<!-- cluster_unity&#45;&gt;predictions -->
<g id="edge24" class="edge">
<title>cluster_unity&#45;&gt;predictions</title>
<path fill="none" stroke="black" stroke-dasharray="5,2" d="M137.57,-353.38C255.46,-353.38 513.42,-353.38 513.42,-353.38 513.42,-353.38 513.42,-317.02 513.42,-317.02"/>
<polygon fill="black" stroke="black" points="516.92,-317.02 513.42,-307.02 509.92,-317.02 516.92,-317.02"/>
</g>
</g>
</svg>
