<?xml version="1.0" encoding="UTF-8" standalone="no"?>
<!DOCTYPE svg PUBLIC "-//W3C//DTD SVG 1.1//EN"
 "http://www.w3.org/Graphics/SVG/1.1/DTD/svg11.dtd">
<!-- Generated by graphviz version 14.0.2 (20251019.1705)
 -->
<!-- Title: exec_nano_banana Pages: 1 -->
<svg width="1748pt" height="466pt"
 viewBox="0.00 0.00 1748.00 466.00" xmlns="http://www.w3.org/2000/svg" xmlns:xlink="http://www.w3.org/1999/xlink">
<g id="graph0" class="graph" transform="scale(1 1) rotate(0) translate(25.2 440.6)">
<title>exec_nano_banana</title>
<polygon fill="white" stroke="none" points="-25.2,25.2 -25.2,-440.6 1722.44,-440.6 1722.44,25.2 -25.2,25.2"/>
<text xml:space="preserve" text-anchor="middle" x="848.62" y="-392.4" font-family="Helvetica,sans-Serif" font-weight="bold" font-size="20.00">OT PdM Intelligence | Executive Architecture (Nano Banana)</text>
<!-- ot_sources -->
<g id="node1" class="node">
<title>ot_sources</title>
<path fill="#fff7ed" stroke="#fdba74" d="M173.79,-386.4C173.79,-386.4 12,-386.4 12,-386.4 6,-386.4 0,-380.4 0,-374.4 0,-374.4 0,-360 0,-360 0,-354 6,-348 12,-348 12,-348 173.79,-348 173.79,-348 179.79,-348 185.79,-354 185.79,-360 185.79,-360 185.79,-374.4 185.79,-374.4 185.79,-380.4 179.79,-386.4 173.79,-386.4"/>
<text xml:space="preserve" text-anchor="middle" x="92.89" y="-368.75" font-family="Helvetica,sans-Serif" font-size="11.00">OT Sources</text>
<text xml:space="preserve" text-anchor="middle" x="92.89" y="-356.75" font-family="Helvetica,sans-Serif" font-size="11.00">OPC&#45;UA | MQTT | Modbus | CAN</text>
</g>
<!-- ingest -->
<g id="node3" class="node">
<title>ingest</title>
<path fill="#fff7ed" stroke="#fdba74" d="M431.33,-335.4C431.33,-335.4 309.29,-335.4 309.29,-335.4 303.29,-335.4 297.29,-329.4 297.29,-323.4 297.29,-323.4 297.29,-309 297.29,-309 297.29,-303 303.29,-297 309.29,-297 309.29,-297 431.33,-297 431.33,-297 437.33,-297 443.33,-303 443.33,-309 443.33,-309 443.33,-323.4 443.33,-323.4 443.33,-329.4 437.33,-335.4 431.33,-335.4"/>
<text xml:space="preserve" text-anchor="middle" x="370.31" y="-317.75" font-family="Helvetica,sans-Serif" font-size="11.00">Zerobus Connector</text>
<text xml:space="preserve" text-anchor="middle" x="370.31" y="-305.75" font-family="Helvetica,sans-Serif" font-size="11.00">Canonical Bronze landing</text>
</g>
<!-- ot_sources&#45;&gt;ingest -->
<g id="edge1" class="edge">
<title>ot_sources&#45;&gt;ingest</title>
<path fill="none" stroke="#7c3aed" stroke-width="1.6" d="M176.24,-347.63C176.24,-333.25 176.24,-316.2 176.24,-316.2 176.24,-316.2 286.52,-316.2 286.52,-316.2"/>
<polygon fill="#7c3aed" stroke="#7c3aed" stroke-width="1.6" points="286.52,-319 294.52,-316.2 286.52,-313.4 286.52,-319"/>
</g>
<!-- simulator -->
<g id="node2" class="node">
<title>simulator</title>
<path fill="#fff7ed" stroke="#fdba74" d="M153.91,-283.4C153.91,-283.4 31.87,-283.4 31.87,-283.4 25.88,-283.4 19.87,-277.4 19.87,-271.4 19.87,-271.4 19.87,-257 19.87,-257 19.87,-251 25.87,-245 31.87,-245 31.87,-245 153.91,-245 153.91,-245 159.91,-245 165.91,-251 165.91,-257 165.91,-257 165.91,-271.4 165.91,-271.4 165.91,-277.4 159.91,-283.4 153.91,-283.4"/>
<text xml:space="preserve" text-anchor="middle" x="92.89" y="-265.75" font-family="Helvetica,sans-Serif" font-size="11.00">Physics Simulator</text>
<text xml:space="preserve" text-anchor="middle" x="92.89" y="-253.75" font-family="Helvetica,sans-Serif" font-size="11.00">Fault + SDT compression</text>
</g>
<!-- simulator&#45;&gt;ingest -->
<g id="edge2" class="edge">
<title>simulator&#45;&gt;ingest</title>
<path fill="none" stroke="#7c3aed" stroke-width="1.6" d="M166.17,-264.2C241,-264.2 346.24,-264.2 346.24,-264.2 346.24,-264.2 346.24,-286.12 346.24,-286.12"/>
<polygon fill="#7c3aed" stroke="#7c3aed" stroke-width="1.6" points="343.44,-286.12 346.24,-294.12 349.04,-286.12 343.44,-286.12"/>
</g>
<!-- lakehouse -->
<g id="node4" class="node">
<title>lakehouse</title>
<path fill="#fff7ed" stroke="none" d="M819.62,-291.27C819.62,-291.27 620.58,-291.27 620.58,-291.27 614.58,-291.27 608.58,-285.27 608.58,-279.27 608.58,-279.27 608.58,-55.12 608.58,-55.12 608.58,-49.13 614.58,-43.12 620.58,-43.12 620.58,-43.12 819.62,-43.12 819.62,-43.12 825.62,-43.12 831.62,-49.12 831.62,-55.12 831.62,-55.12 831.62,-279.27 831.62,-279.27 831.62,-285.27 825.62,-291.27 819.62,-291.27"/>
<image xlink:href="icons/databricks/lakehouse.png" width="192px" height="192px" preserveAspectRatio="xMinYMin meet" x="624.1" y="-280.075"/>
<text xml:space="preserve" text-anchor="start" x="666.85" y="-71.62" font-family="Helvetica,sans-Serif" font-size="11.00">Databricks Lakehouse</text>
<text xml:space="preserve" text-anchor="start" x="672.1" y="-55.52" font-family="Helvetica,sans-Serif" font-size="9.00">Bronze to Silver to Gold</text>
</g>
<!-- ingest&#45;&gt;lakehouse -->
<g id="edge3" class="edge">
<title>ingest&#45;&gt;lakehouse</title>
<path fill="none" stroke="#7c3aed" stroke-width="1.6" d="M394.24,-296.79C394.24,-291.57 394.24,-287.34 394.24,-287.34 394.24,-287.34 598.45,-287.34 598.45,-287.34"/>
<polygon fill="#7c3aed" stroke="#7c3aed" stroke-width="1.6" points="598.45,-290.14 606.45,-287.34 598.45,-284.54 598.45,-290.14"/>
<text xml:space="preserve" text-anchor="middle" x="545.2" y="-268.95" font-family="Helvetica,sans-Serif" font-size="10.00">DLT pipeline</text>
</g>
<!-- ml -->
<g id="node6" class="node">
<title>ml</title>
<path fill="#f5f3ff" stroke="#c4b5fd" d="M1081.16,-238.4C1081.16,-238.4 980.87,-238.4 980.87,-238.4 974.87,-238.4 968.87,-232.4 968.87,-226.4 968.87,-226.4 968.87,-212 968.87,-212 968.87,-206 974.87,-200 980.87,-200 980.87,-200 1081.16,-200 1081.16,-200 1087.16,-200 1093.16,-206 1093.16,-212 1093.16,-212 1093.16,-226.4 1093.16,-226.4 1093.16,-232.4 1087.16,-238.4 1081.16,-238.4"/>
<text xml:space="preserve" text-anchor="middle" x="1031.01" y="-220.75" font-family="Helvetica,sans-Serif" font-size="11.00">MLflow + UC Models</text>
<text xml:space="preserve" text-anchor="middle" x="1031.01" y="-208.75" font-family="Helvetica,sans-Serif" font-size="11.00">Anomaly + RUL</text>
</g>
<!-- lakehouse&#45;&gt;ml -->
<g id="edge5" class="edge">
<title>lakehouse&#45;&gt;ml</title>
<path fill="none" stroke="#7c3aed" stroke-width="1.6" d="M831.47,-219.2C831.47,-219.2 958.32,-219.2 958.32,-219.2"/>
<polygon fill="#7c3aed" stroke="#7c3aed" stroke-width="1.6" points="958.32,-222 966.32,-219.2 958.32,-216.4 958.32,-222"/>
<text xml:space="preserve" text-anchor="middle" x="900.24" y="-220.95" font-family="Helvetica,sans-Serif" font-size="10.00">feature vectors</text>
</g>
<!-- app -->
<g id="node7" class="node">
<title>app</title>
<path fill="#fff7ed" stroke="none" d="M1434.7,-291.27C1434.7,-291.27 1235.66,-291.27 1235.66,-291.27 1229.66,-291.27 1223.66,-285.27 1223.66,-279.27 1223.66,-279.27 1223.66,-55.12 1223.66,-55.12 1223.66,-49.13 1229.66,-43.12 1235.66,-43.12 1235.66,-43.12 1434.7,-43.12 1434.7,-43.12 1440.7,-43.12 1446.7,-49.12 1446.7,-55.12 1446.7,-55.12 1446.7,-279.27 1446.7,-279.27 1446.7,-285.27 1440.7,-291.27 1434.7,-291.27"/>
<image xlink:href="icons/databricks/workspace.png" width="192px" height="192px" preserveAspectRatio="xMinYMin meet" x="1239.18" y="-280.075"/>
<text xml:space="preserve" text-anchor="start" x="1298.8" y="-71.62" font-family="Helvetica,sans-Serif" font-size="11.00">Databricks App</text>
<text xml:space="preserve" text-anchor="start" x="1302.55" y="-55.52" font-family="Helvetica,sans-Serif" font-size="9.00">FastAPI + React</text>
</g>
<!-- lakehouse&#45;&gt;app -->
<g id="edge7" class="edge">
<title>lakehouse&#45;&gt;app</title>
<path fill="none" stroke="#7c3aed" stroke-width="1.6" d="M831.49,-121.56C831.49,-121.56 1213.42,-121.56 1213.42,-121.56"/>
<polygon fill="#7c3aed" stroke="#7c3aed" stroke-width="1.6" points="1213.42,-124.36 1221.42,-121.56 1213.42,-118.76 1213.42,-124.36"/>
<text xml:space="preserve" text-anchor="middle" x="1031.01" y="-117.95" font-family="Helvetica,sans-Serif" font-size="10.00">predictions + finance</text>
</g>
<!-- governance -->
<g id="node5" class="node">
<title>governance</title>
<path fill="#fff7ed" stroke="none" d="M469.83,-232.4C469.83,-232.4 270.79,-232.4 270.79,-232.4 264.79,-232.4 258.79,-226.4 258.79,-220.4 258.79,-220.4 258.79,-12 258.79,-12 258.79,-6 264.79,0 270.79,0 270.79,0 469.83,0 469.83,0 475.83,0 481.83,-6 481.83,-12 481.83,-12 481.83,-220.4 481.83,-220.4 481.83,-226.4 475.83,-232.4 469.83,-232.4"/>
<image xlink:href="icons/databricks/unity_catalog.png" width="192px" height="192px" preserveAspectRatio="xMinYMin meet" x="274.31" y="-221.2"/>
<text xml:space="preserve" text-anchor="start" x="337.68" y="-12.75" font-family="Helvetica,sans-Serif" font-size="11.00">Unity Catalog</text>
</g>
<!-- governance&#45;&gt;lakehouse -->
<g id="edge4" class="edge">
<title>governance&#45;&gt;lakehouse</title>
<path fill="none" stroke="#a78bfa" stroke-width="1.6" stroke-dasharray="5,2" d="M481.47,-137.76C522.08,-137.76 568,-137.76 608.63,-137.76"/>
</g>
<!-- ml&#45;&gt;app -->
<g id="edge6" class="edge">
<title>ml&#45;&gt;app</title>
<path fill="none" stroke="#7c3aed" stroke-width="1.6" d="M1093.3,-219.2C1093.3,-219.2 1213.35,-219.2 1213.35,-219.2"/>
<polygon fill="#7c3aed" stroke="#7c3aed" stroke-width="1.6" points="1213.35,-222 1221.35,-219.2 1213.35,-216.4 1213.35,-222"/>
<text xml:space="preserve" text-anchor="middle" x="1158.41" y="-220.95" font-family="Helvetica,sans-Serif" font-size="10.00">batch scoring</text>
</g>
<!-- insights -->
<g id="node8" class="node">
<title>insights</title>
<path fill="#ecfdf5" stroke="#86efac" d="M1685.24,-186.4C1685.24,-186.4 1531.7,-186.4 1531.7,-186.4 1525.7,-186.4 1519.7,-180.4 1519.7,-174.4 1519.7,-174.4 1519.7,-160 1519.7,-160 1519.7,-154 1525.7,-148 1531.7,-148 1531.7,-148 1685.24,-148 1685.24,-148 1691.24,-148 1697.24,-154 1697.24,-160 1697.24,-160 1697.24,-174.4 1697.24,-174.4 1697.24,-180.4 1691.24,-186.4 1685.24,-186.4"/>
<text xml:space="preserve" text-anchor="middle" x="1608.47" y="-168.75" font-family="Helvetica,sans-Serif" font-size="11.00">Executive Insights</text>
<text xml:space="preserve" text-anchor="middle" x="1608.47" y="-156.75" font-family="Helvetica,sans-Serif" font-size="11.00">EBIT impact | ROI | Risk actions</text>
</g>
<!-- app&#45;&gt;insights -->
<g id="edge8" class="edge">
<title>app&#45;&gt;insights</title>
<path fill="none" stroke="#7c3aed" stroke-width="1.6" d="M1446.34,-167.2C1446.34,-167.2 1509.18,-167.2 1509.18,-167.2"/>
<polygon fill="#7c3aed" stroke="#7c3aed" stroke-width="1.6" points="1509.18,-170 1517.18,-167.2 1509.18,-164.4 1509.18,-170"/>
</g>
</g>
</svg>
