<?xml version="1.0" encoding="UTF-8" standalone="no"?>
<!DOCTYPE svg PUBLIC "-//W3C//DTD SVG 1.1//EN"
 "http://www.w3.org/Graphics/SVG/1.1/DTD/svg11.dtd">
<!-- Generated by graphviz version 14.0.2 (20251019.1705)
 -->
<!-- Title: finance_methodology_nano_banana Pages: 1 -->
<svg width="2281pt" height="300pt"
 viewBox="0.00 0.00 2281.00 300.00" xmlns="http://www.w3.org/2000/svg" xmlns:xlink="http://www.w3.org/1999/xlink">
<g id="graph0" class="graph" transform="scale(1 1) rotate(0) translate(18 282)">
<title>finance_methodology_nano_banana</title>
<polygon fill="white" stroke="none" points="-18,18 -18,-282 2262.5,-282 2262.5,18 -18,18"/>
<g id="clust1" class="cluster">
<title>cluster_inputs</title>
<path fill="white" stroke="#dbeafe" d="M453.5,-8C453.5,-8 670,-8 670,-8 676,-8 682,-14 682,-20 682,-20 682,-220 682,-220 682,-226 676,-232 670,-232 670,-232 453.5,-232 453.5,-232 447.5,-232 441.5,-226 441.5,-220 441.5,-220 441.5,-20 441.5,-20 441.5,-14 447.5,-8 453.5,-8"/>
<text xml:space="preserve" text-anchor="middle" x="561.75" y="-216.6" font-family="Helvetica,sans-Serif" font-size="12.00">1) Data Inputs</text>
</g>
<!-- title -->
<g id="node1" class="node">
<title>title</title>
<path fill="#ffffff" stroke="none" d="M390.5,-136.88C390.5,-136.88 12,-136.88 12,-136.88 6,-136.88 0,-130.88 0,-124.88 0,-124.88 0,-95.12 0,-95.12 0,-89.12 6,-83.12 12,-83.12 12,-83.12 390.5,-83.12 390.5,-83.12 396.5,-83.12 402.5,-89.12 402.5,-95.12 402.5,-95.12 402.5,-124.88 402.5,-124.88 402.5,-130.88 396.5,-136.88 390.5,-136.88"/>
<text xml:space="preserve" text-anchor="start" x="4" y="-109.17" font-family="Helvetica,sans-Serif" font-weight="bold" font-size="26.00" fill="#0f172a">Executive Finance Methodology</text>
<text xml:space="preserve" text-anchor="start" x="4" y="-88.28" font-family="Helvetica,sans-Serif" font-size="13.00" fill="#475569">ROI, payback, and EBIT impact in Industrial Intelligence</text>
</g>
<!-- finance_daily -->
<g id="node2" class="node">
<title>finance_daily</title>
<path fill="#eff6ff" stroke="#cbd5e1" d="M654.88,-203.5C654.88,-203.5 468.62,-203.5 468.62,-203.5 462.62,-203.5 456.62,-197.5 456.62,-191.5 456.62,-191.5 456.62,-174.5 456.62,-174.5 456.62,-168.5 462.62,-162.5 468.62,-162.5 468.62,-162.5 654.88,-162.5 654.88,-162.5 660.88,-162.5 666.88,-168.5 666.88,-174.5 666.88,-174.5 666.88,-191.5 666.88,-191.5 666.88,-197.5 660.88,-203.5 654.88,-203.5"/>
<text xml:space="preserve" text-anchor="start" x="495.38" y="-190.05" font-family="Helvetica,sans-Serif" font-size="11.00" fill="#0f172a"> &#160;&#160;&#160;&#160;&#160;</text>
<text xml:space="preserve" text-anchor="start" x="513.38" y="-190.05" font-family="Helvetica,sans-Serif" font-weight="bold" font-size="11.00" fill="#0f172a">Primary Finance Daily</text>
<text xml:space="preserve" text-anchor="start" x="464.62" y="-179.05" font-family="Helvetica,sans-Serif" font-size="11.00" fill="#0f172a"> &#160;&#160;&#160;&#160;&#160;&lt;catalog&gt;.finance.pm_financial_daily</text>
<text xml:space="preserve" text-anchor="start" x="471.75" y="-168.05" font-family="Helvetica,sans-Serif" font-size="11.00" fill="#0f172a"> &#160;&#160;&#160;&#160;&#160;</text>
<text xml:space="preserve" text-anchor="start" x="489.75" y="-168.05" font-family="Helvetica,sans-Serif" font-size="10.00" fill="#475569">30d aggregated cost/value context</text>
<text xml:space="preserve" text-anchor="start" x="639.75" y="-168.05" font-family="Helvetica,sans-Serif" font-size="11.00" fill="#0f172a"> &#160;&#160;&#160;</text>
</g>
<!-- title&#45;&gt;finance_daily -->
<!-- impact_events -->
<g id="node3" class="node">
<title>impact_events</title>
<path fill="#eff6ff" stroke="#cbd5e1" d="M662,-57.5C662,-57.5 461.5,-57.5 461.5,-57.5 455.5,-57.5 449.5,-51.5 449.5,-45.5 449.5,-45.5 449.5,-28.5 449.5,-28.5 449.5,-22.5 455.5,-16.5 461.5,-16.5 461.5,-16.5 662,-16.5 662,-16.5 668,-16.5 674,-22.5 674,-28.5 674,-28.5 674,-45.5 674,-45.5 674,-51.5 668,-57.5 662,-57.5"/>
<text xml:space="preserve" text-anchor="start" x="490.5" y="-44.05" font-family="Helvetica,sans-Serif" font-size="11.00" fill="#0f172a"> &#160;&#160;&#160;&#160;&#160;</text>
<text xml:space="preserve" text-anchor="start" x="508.5" y="-44.05" font-family="Helvetica,sans-Serif" font-weight="bold" font-size="11.00" fill="#0f172a">Financial Impact Events</text>
<text xml:space="preserve" text-anchor="start" x="457.5" y="-33.05" font-family="Helvetica,sans-Serif" font-size="11.00" fill="#0f172a"> &#160;&#160;&#160;&#160;&#160;&lt;catalog&gt;.gold.financial_impact_events</text>
<text xml:space="preserve" text-anchor="start" x="457.5" y="-22.05" font-family="Helvetica,sans-Serif" font-size="11.00" fill="#0f172a"> &#160;&#160;&#160;&#160;&#160;</text>
<text xml:space="preserve" text-anchor="start" x="475.5" y="-22.05" font-family="Helvetica,sans-Serif" font-size="10.00" fill="#475569">downtime, expected failure, avoided cost</text>
<text xml:space="preserve" text-anchor="start" x="654" y="-22.05" font-family="Helvetica,sans-Serif" font-size="11.00" fill="#0f172a"> &#160;&#160;&#160;</text>
</g>
<!-- title&#45;&gt;impact_events -->
<!-- work_orders -->
<g id="node4" class="node">
<title>work_orders</title>
<path fill="#eff6ff" stroke="#cbd5e1" d="M645.12,-130.5C645.12,-130.5 478.38,-130.5 478.38,-130.5 472.38,-130.5 466.38,-124.5 466.38,-118.5 466.38,-118.5 466.38,-101.5 466.38,-101.5 466.38,-95.5 472.38,-89.5 478.38,-89.5 478.38,-89.5 645.12,-89.5 645.12,-89.5 651.12,-89.5 657.12,-95.5 657.12,-101.5 657.12,-101.5 657.12,-118.5 657.12,-118.5 657.12,-124.5 651.12,-130.5 645.12,-130.5"/>
<text xml:space="preserve" text-anchor="start" x="519.38" y="-117.05" font-family="Helvetica,sans-Serif" font-size="11.00" fill="#0f172a"> &#160;&#160;&#160;&#160;&#160;</text>
<text xml:space="preserve" text-anchor="start" x="537.38" y="-117.05" font-family="Helvetica,sans-Serif" font-weight="bold" font-size="11.00" fill="#0f172a">Work Orders</text>
<text xml:space="preserve" text-anchor="start" x="474.38" y="-106.05" font-family="Helvetica,sans-Serif" font-size="11.00" fill="#0f172a"> &#160;&#160;&#160;&#160;&#160;&lt;catalog&gt;.lakebase.work_orders</text>
<text xml:space="preserve" text-anchor="start" x="480.38" y="-95.05" font-family="Helvetica,sans-Serif" font-size="11.00" fill="#0f172a"> &#160;&#160;&#160;&#160;&#160;</text>
<text xml:space="preserve" text-anchor="start" x="498.38" y="-95.05" font-family="Helvetica,sans-Serif" font-size="10.00" fill="#475569">open/scheduled action context</text>
<text xml:space="preserve" text-anchor="start" x="631.12" y="-95.05" font-family="Helvetica,sans-Serif" font-size="11.00" fill="#0f172a"> &#160;&#160;&#160;</text>
</g>
<!-- title&#45;&gt;work_orders -->
<!-- net_benefit -->
<g id="node5" class="node">
<title>net_benefit</title>
<path fill="#f0fdf4" stroke="#86efac" d="M1122.5,-185.5C1122.5,-185.5 786.25,-185.5 786.25,-185.5 780.25,-185.5 774.25,-179.5 774.25,-173.5 774.25,-173.5 774.25,-156.5 774.25,-156.5 774.25,-150.5 780.25,-144.5 786.25,-144.5 786.25,-144.5 1122.5,-144.5 1122.5,-144.5 1128.5,-144.5 1134.5,-150.5 1134.5,-156.5 1134.5,-156.5 1134.5,-173.5 1134.5,-173.5 1134.5,-179.5 1128.5,-185.5 1122.5,-185.5"/>
<text xml:space="preserve" text-anchor="start" x="912.75" y="-172.05" font-family="Helvetica,sans-Serif" font-size="11.00" fill="#0f172a"> &#160;&#160;&#160;</text>
<text xml:space="preserve" text-anchor="start" x="924.75" y="-172.05" font-family="Helvetica,sans-Serif" font-weight="bold" font-size="11.00" fill="#0f172a">2) Net Benefit</text>
<text xml:space="preserve" text-anchor="start" x="782.25" y="-161.05" font-family="Helvetica,sans-Serif" font-size="11.00" fill="#0f172a"> &#160;&#160;&#160;net_benefit = avoided_downtime + avoided_quality + avoided_energy</text>
<text xml:space="preserve" text-anchor="start" x="858.38" y="-150.05" font-family="Helvetica,sans-Serif" font-size="11.00" fill="#0f172a"> &#160;&#160;&#160;    &#45; intervention_cost &#45; platform_cost &#160;</text>
</g>
<!-- finance_daily&#45;&gt;net_benefit -->
<g id="edge4" class="edge">
<title>finance_daily&#45;&gt;net_benefit</title>
<path fill="none" stroke="#64748b" stroke-width="1.4" d="M667.17,-178.19C697.1,-176.81 730.7,-175.26 764.06,-173.72"/>
<polygon fill="#64748b" stroke="#64748b" stroke-width="1.4" points="763.94,-176.53 771.81,-173.37 763.69,-170.94 763.94,-176.53"/>
</g>
<!-- fallback -->
<g id="node10" class="node">
<title>fallback</title>
<path fill="#fff7ed" stroke="#fdba74" d="M1175.75,-99.5C1175.75,-99.5 733,-99.5 733,-99.5 727,-99.5 721,-93.5 721,-87.5 721,-87.5 721,-48.5 721,-48.5 721,-42.5 727,-36.5 733,-36.5 733,-36.5 1175.75,-36.5 1175.75,-36.5 1181.75,-36.5 1187.75,-42.5 1187.75,-48.5 1187.75,-48.5 1187.75,-87.5 1187.75,-87.5 1187.75,-93.5 1181.75,-99.5 1175.75,-99.5"/>
<text xml:space="preserve" text-anchor="start" x="845.25" y="-86.05" font-family="Helvetica,sans-Serif" font-size="11.00" fill="#0f172a"> &#160;&#160;&#160;</text>
<text xml:space="preserve" text-anchor="start" x="857.25" y="-86.05" font-family="Helvetica,sans-Serif" font-weight="bold" font-size="11.00" fill="#0f172a">5) Fallback when daily finance is sparse</text>
<text xml:space="preserve" text-anchor="start" x="729" y="-75.05" font-family="Helvetica,sans-Serif" font-size="11.00" fill="#0f172a"> &#160;&#160;&#160;Mode: modeled_work_order_economics</text>
<text xml:space="preserve" text-anchor="start" x="729" y="-64.05" font-family="Helvetica,sans-Serif" font-size="11.00" fill="#0f172a"> &#160;&#160;&#160;expected_failure_cost ~= downtime + quality + energy + emergency labor + expedited parts</text>
<text xml:space="preserve" text-anchor="start" x="729" y="-53.05" font-family="Helvetica,sans-Serif" font-size="11.00" fill="#0f172a"> &#160;&#160;&#160;intervention_cost ~= planned labor + planned parts + dispatch</text>
<text xml:space="preserve" text-anchor="start" x="760.5" y="-42.05" font-family="Helvetica,sans-Serif" font-size="11.00" fill="#0f172a"> &#160;&#160;&#160;net_ebit_impact_per_WO = max(0, expected_failure_cost &#45; intervention_cost) &#160;</text>
</g>
<!-- finance_daily&#45;&gt;fallback -->
<g id="edge13" class="edge">
<title>finance_daily&#45;&gt;fallback</title>
<path fill="none" stroke="#64748b" stroke-width="1.4" d="M638.03,-162.01C652.74,-157.43 667.95,-152.33 682,-147 699.85,-140.22 703.03,-135.45 721,-129 748.07,-119.29 777.42,-110.38 805.85,-102.55"/>
<polygon fill="#64748b" stroke="#64748b" stroke-width="1.4" points="806.42,-105.29 813.41,-100.49 804.95,-99.89 806.42,-105.29"/>
</g>
<!-- impact_events&#45;&gt;net_benefit -->
<g id="edge5" class="edge">
<title>impact_events&#45;&gt;net_benefit</title>
<path fill="none" stroke="#64748b" stroke-width="1.4" d="M649.5,-57.99C660.85,-62.42 672,-67.71 682,-74 703.56,-87.57 698.83,-103.45 721,-116 739.51,-126.48 760,-134.73 780.92,-141.21"/>
<polygon fill="#64748b" stroke="#64748b" stroke-width="1.4" points="780.06,-143.88 788.53,-143.47 781.65,-138.51 780.06,-143.88"/>
</g>
<!-- impact_events&#45;&gt;fallback -->
<g id="edge12" class="edge">
<title>impact_events&#45;&gt;fallback</title>
<path fill="none" stroke="#64748b" stroke-width="1.4" d="M674.43,-45.86C686.08,-46.79 698.22,-47.75 710.64,-48.74"/>
<polygon fill="#64748b" stroke="#64748b" stroke-width="1.4" points="710.34,-51.52 718.54,-49.36 710.78,-45.94 710.34,-51.52"/>
</g>
<!-- work_orders&#45;&gt;net_benefit -->
<g id="edge6" class="edge">
<title>work_orders&#45;&gt;net_benefit</title>
<path fill="none" stroke="#64748b" stroke-width="1.4" d="M657.31,-123.31C698.52,-129.12 747.97,-136.08 794.55,-142.64"/>
<polygon fill="#64748b" stroke="#64748b" stroke-width="1.4" points="794.04,-145.39 802.35,-143.74 794.82,-139.85 794.04,-145.39"/>
</g>
<!-- work_orders&#45;&gt;fallback -->
<g id="edge11" class="edge">
<title>work_orders&#45;&gt;fallback</title>
<path fill="none" stroke="#64748b" stroke-width="1.4" d="M657.31,-99.83C674.04,-98.03 692.12,-96.09 710.82,-94.08"/>
<polygon fill="#64748b" stroke="#64748b" stroke-width="1.4" points="710.89,-96.89 718.55,-93.25 710.3,-91.32 710.89,-96.89"/>
</g>
<!-- ebit_saved -->
<g id="node6" class="node">
<title>ebit_saved</title>
<path fill="#f0fdf4" stroke="#86efac" d="M1414.25,-189C1414.25,-189 1246.75,-189 1246.75,-189 1240.75,-189 1234.75,-183 1234.75,-177 1234.75,-177 1234.75,-165 1234.75,-165 1234.75,-159 1240.75,-153 1246.75,-153 1246.75,-153 1414.25,-153 1414.25,-153 1420.25,-153 1426.25,-159 1426.25,-165 1426.25,-165 1426.25,-177 1426.25,-177 1426.25,-183 1420.25,-189 1414.25,-189"/>
<text xml:space="preserve" text-anchor="start" x="1287.75" y="-172.55" font-family="Helvetica,sans-Serif" font-size="11.00" fill="#0f172a"> &#160;&#160;&#160;</text>
<text xml:space="preserve" text-anchor="start" x="1299.75" y="-172.55" font-family="Helvetica,sans-Serif" font-weight="bold" font-size="11.00" fill="#0f172a">3) EBIT Saved</text>
<text xml:space="preserve" text-anchor="start" x="1242.75" y="-161.55" font-family="Helvetica,sans-Serif" font-size="11.00" fill="#0f172a"> &#160;&#160;&#160;ebit_saved = max(0, net_benefit) &#160;</text>
</g>
<!-- net_benefit&#45;&gt;ebit_saved -->
<g id="edge7" class="edge">
<title>net_benefit&#45;&gt;ebit_saved</title>
<path fill="none" stroke="#64748b" stroke-width="1.4" d="M1134.77,-167.88C1165.63,-168.37 1196.78,-168.87 1224.83,-169.32"/>
<polygon fill="#64748b" stroke="#64748b" stroke-width="1.4" points="1224.46,-172.12 1232.51,-169.44 1224.55,-166.52 1224.46,-172.12"/>
</g>
<!-- roi -->
<g id="node7" class="node">
<title>roi</title>
<path fill="#ecfeff" stroke="#67e8f9" d="M1813.25,-128C1813.25,-128 1503.25,-128 1503.25,-128 1497.25,-128 1491.25,-122 1491.25,-116 1491.25,-116 1491.25,-104 1491.25,-104 1491.25,-98 1497.25,-92 1503.25,-92 1503.25,-92 1813.25,-92 1813.25,-92 1819.25,-92 1825.25,-98 1825.25,-104 1825.25,-104 1825.25,-116 1825.25,-116 1825.25,-122 1819.25,-128 1813.25,-128"/>
<text xml:space="preserve" text-anchor="start" x="1626.75" y="-111.55" font-family="Helvetica,sans-Serif" font-size="11.00" fill="#0f172a"> &#160;&#160;&#160;</text>
<text xml:space="preserve" text-anchor="start" x="1638.75" y="-111.55" font-family="Helvetica,sans-Serif" font-weight="bold" font-size="11.00" fill="#0f172a">4a) ROI %</text>
<text xml:space="preserve" text-anchor="start" x="1499.25" y="-100.55" font-family="Helvetica,sans-Serif" font-size="11.00" fill="#0f172a"> &#160;&#160;&#160;roi_pct = ebit_saved / (intervention_cost + platform_cost) * 100 &#160;</text>
</g>
<!-- ebit_saved&#45;&gt;roi -->
<g id="edge8" class="edge">
<title>ebit_saved&#45;&gt;roi</title>
<path fill="none" stroke="#64748b" stroke-width="1.4" d="M1426.42,-152.85C1442.06,-149.88 1458.11,-146.84 1473.25,-144 1497.21,-139.5 1522.93,-134.72 1547.32,-130.21"/>
<polygon fill="#64748b" stroke="#64748b" stroke-width="1.4" points="1547.52,-133.02 1554.88,-128.81 1546.5,-127.51 1547.52,-133.02"/>
</g>
<!-- payback -->
<g id="node8" class="node">
<title>payback</title>
<path fill="#ecfeff" stroke="#67e8f9" d="M1831.25,-264C1831.25,-264 1485.25,-264 1485.25,-264 1479.25,-264 1473.25,-258 1473.25,-252 1473.25,-252 1473.25,-240 1473.25,-240 1473.25,-234 1479.25,-228 1485.25,-228 1485.25,-228 1831.25,-228 1831.25,-228 1837.25,-228 1843.25,-234 1843.25,-240 1843.25,-240 1843.25,-252 1843.25,-252 1843.25,-258 1837.25,-264 1831.25,-264"/>
<text xml:space="preserve" text-anchor="start" x="1605.75" y="-247.55" font-family="Helvetica,sans-Serif" font-size="11.00" fill="#0f172a"> &#160;&#160;&#160;</text>
<text xml:space="preserve" text-anchor="start" x="1617.75" y="-247.55" font-family="Helvetica,sans-Serif" font-weight="bold" font-size="11.00" fill="#0f172a">4b) Payback Days</text>
<text xml:space="preserve" text-anchor="start" x="1481.25" y="-236.55" font-family="Helvetica,sans-Serif" font-size="11.00" fill="#0f172a"> &#160;&#160;&#160;payback_days = (intervention_cost + platform_cost) / (ebit_saved / 30) &#160;</text>
</g>
<!-- ebit_saved&#45;&gt;payback -->
<g id="edge9" class="edge">
<title>ebit_saved&#45;&gt;payback</title>
<path fill="none" stroke="#64748b" stroke-width="1.4" d="M1390.47,-189.47C1415.8,-197.04 1445.83,-205.52 1473.25,-212 1493.95,-216.89 1516.09,-221.51 1537.59,-225.67"/>
<polygon fill="#64748b" stroke="#64748b" stroke-width="1.4" points="1536.96,-228.39 1545.34,-227.15 1538.01,-222.89 1536.96,-228.39"/>
</g>
<!-- margin -->
<g id="node9" class="node">
<title>margin</title>
<path fill="#ecfeff" stroke="#67e8f9" d="M1814.75,-196C1814.75,-196 1501.75,-196 1501.75,-196 1495.75,-196 1489.75,-190 1489.75,-184 1489.75,-184 1489.75,-172 1489.75,-172 1489.75,-166 1495.75,-160 1501.75,-160 1501.75,-160 1814.75,-160 1814.75,-160 1820.75,-160 1826.75,-166 1826.75,-172 1826.75,-172 1826.75,-184 1826.75,-184 1826.75,-190 1820.75,-196 1814.75,-196"/>
<text xml:space="preserve" text-anchor="start" x="1585.5" y="-179.55" font-family="Helvetica,sans-Serif" font-size="11.00" fill="#0f172a"> &#160;&#160;&#160;</text>
<text xml:space="preserve" text-anchor="start" x="1597.5" y="-179.55" font-family="Helvetica,sans-Serif" font-weight="bold" font-size="11.00" fill="#0f172a">4c) EBIT Margin Lift (bps)</text>
<text xml:space="preserve" text-anchor="start" x="1497.75" y="-168.55" font-family="Helvetica,sans-Serif" font-size="11.00" fill="#0f172a"> &#160;&#160;&#160;ebit_margin_bps = ebit_saved / baseline_monthly_ebit * 10,000 &#160;</text>
</g>
<!-- ebit_saved&#45;&gt;margin -->
<g id="edge10" class="edge">
<title>ebit_saved&#45;&gt;margin</title>
<path fill="none" stroke="#64748b" stroke-width="1.4" d="M1426.6,-173.04C1443.31,-173.4 1461.19,-173.79 1479.32,-174.18"/>
<polygon fill="#64748b" stroke="#64748b" stroke-width="1.4" points="1479.23,-176.98 1487.29,-174.35 1479.35,-171.38 1479.23,-176.98"/>
</g>
<!-- currency -->
<g id="node11" class="node">
<title>currency</title>
<path fill="#f8fafc" stroke="#cbd5e1" d="M2232.5,-162C2232.5,-162 1902.25,-162 1902.25,-162 1896.25,-162 1890.25,-156 1890.25,-150 1890.25,-150 1890.25,-138 1890.25,-138 1890.25,-132 1896.25,-126 1902.25,-126 1902.25,-126 2232.5,-126 2232.5,-126 2238.5,-126 2244.5,-132 2244.5,-138 2244.5,-138 2244.5,-150 2244.5,-150 2244.5,-156 2238.5,-162 2232.5,-162"/>
<text xml:space="preserve" text-anchor="start" x="2025.75" y="-145.55" font-family="Helvetica,sans-Serif" font-size="11.00" fill="#0f172a"> &#160;&#160;&#160;</text>
<text xml:space="preserve" text-anchor="start" x="2037.75" y="-145.55" font-family="Helvetica,sans-Serif" font-weight="bold" font-size="11.00" fill="#0f172a">Display Layer</text>
<text xml:space="preserve" text-anchor="start" x="1898.25" y="-134.55" font-family="Helvetica,sans-Serif" font-size="11.00" fill="#0f172a"> &#160;&#160;&#160;All values converted to selected UI currency before rendering cards &#160;</text>
</g>
<!-- roi&#45;&gt;currency -->
<g id="edge14" class="edge">
<title>roi&#45;&gt;currency</title>
<path fill="none" stroke="#64748b" stroke-width="1.4" d="M1825.72,-123.9C1843.62,-125.4 1861.9,-126.92 1880.01,-128.44"/>
<polygon fill="#64748b" stroke="#64748b" stroke-width="1.4" points="1879.72,-131.22 1887.93,-129.1 1880.19,-125.64 1879.72,-131.22"/>
</g>
<!-- payback&#45;&gt;currency -->
<g id="edge15" class="edge">
<title>payback&#45;&gt;currency</title>
<path fill="none" stroke="#64748b" stroke-width="1.4" d="M1770.6,-227.52C1794.67,-222.94 1819.9,-217.7 1843.25,-212 1897.68,-198.72 1958.44,-179.94 2002.8,-165.47"/>
<polygon fill="#64748b" stroke="#64748b" stroke-width="1.4" points="2003.55,-168.17 2010.28,-163.02 2001.8,-162.85 2003.55,-168.17"/>
</g>
<!-- margin&#45;&gt;currency -->
<g id="edge16" class="edge">
<title>margin&#45;&gt;currency</title>
<path fill="none" stroke="#64748b" stroke-width="1.4" d="M1827.19,-163.97C1844.66,-162.52 1862.48,-161.03 1880.14,-159.55"/>
<polygon fill="#64748b" stroke="#64748b" stroke-width="1.4" points="1880.07,-162.37 1887.81,-158.91 1879.6,-156.79 1880.07,-162.37"/>
</g>
<!-- fallback&#45;&gt;currency -->
<g id="edge17" class="edge">
<title>fallback&#45;&gt;currency</title>
<path fill="none" stroke="#64748b" stroke-width="1.4" d="M1188.18,-52.01C1368.14,-43.99 1622.89,-42.15 1843.25,-76 1901.61,-84.96 1965.87,-105.78 2010.38,-122.03"/>
<polygon fill="#64748b" stroke="#64748b" stroke-width="1.4" points="2009.38,-124.65 2017.86,-124.79 2011.32,-119.4 2009.38,-124.65"/>
</g>
</g>
</svg>
